<svg width="3518" height="2066" viewBox="0 0 3518 2066" fill="none" xmlns="http://www.w3.org/2000/svg">
<g clip-path="url(#clip0_127_38)">
<path d="M-28.6951 2053.07C-28.6951 2053.07 52.5121 2096.11 93.8882 2016.14C135.264 1936.18 123.688 1834.35 123.688 1834.35C123.688 1834.35 134.442 1768.07 230.529 1759.85C326.617 1751.63 307.547 1614.97 307.547 1614.97C307.547 1614.97 299.245 1543.92 318.29 1433.18C337.336 1322.44 502.209 1337.48 518.761 1427.02C535.314 1516.57 494.753 1698.32 541.976 1786.45C589.199 1874.58 644.709 1869.81 698.554 1808.29C718.699 1793.08 713.384 1731.38 710.486 1665.02C708.158 1610.9 696.776 1562.81 698.529 1547.25C708.475 1458.4 809.542 1474.82 812.869 1562.95C816.195 1651.09 844.369 1811.02 838.591 1869.79C832.813 1928.56 830.315 2070.7 918.153 2058.37C1005.99 2046.05 990.195 1929.92 990.195 1929.92C990.195 1929.92 983.536 1694.17 997.612 1666.13C1011.69 1638.09 1051.46 1614.86 1081.28 1647.66C1111.1 1680.47 1121.06 1767.24 1183.21 1770.67C1245.36 1774.11 1240.38 1764.53 1268.53 1735.82C1296.69 1707.12 1312.42 1690.03 1387.84 1688.65C1463.26 1687.28 1666.2 1710.48 1752.32 1586.8C1838.44 1463.11 1893.16 1588.15 1879.09 1621.62C1865.01 1655.1 1829.37 1759 1844.31 1794.5C1859.24 1830 1894.85 1853.93 1939.59 1836.17C1984.34 1818.42 1961.96 1724.1 1961.96 1724.1C1961.96 1724.1 1920.52 1625.02 1942.89 1584C1965.26 1542.98 2025.74 1531.36 2082.06 1566.9C2138.38 1602.44 2200.53 1556.64 2200.53 1556.64C2200.53 1556.64 2316.51 1463.69 2382.79 1527.92C2449.07 1592.16 2451.54 1702.16 2455.72 1774.62C2459.9 1847.07 2444.99 2028.82 2547.71 2041.8C2650.44 2054.77 2665.36 1960.45 2665.36 1960.45C2665.36 1960.45 2677.78 1920.8 2677.77 1825.82C2677.76 1730.84 2847.61 1721.95 2847.61 1721.95C2847.61 1721.95 3056.37 1671.37 3106.06 1752.66C3155.74 1833.95 3211.54 1816.31 3234.76 1801.6C3257.99 1786.9 3279.21 1654.22 3302.39 1615.27C3325.57 1576.32 3429.14 1568.8 3446.54 1603.64C3463.94 1638.48 3493.77 1700.69 3566.67 1687L3539.91 -118.719L-68.6701 -69.1825L-28.6951 2053.07Z" fill="#5E2C15"/>
</g>
<defs>
<clipPath id="clip0_127_38">
<rect width="3517.13" height="2065.14" fill="white" transform="translate(0 0.336426)"/>
</clipPath>
</defs>
</svg>
