<svg width="87" height="95" viewBox="0 0 87 95" fill="none" xmlns="http://www.w3.org/2000/svg">
<path d="M30.2455 12.8579C29.8706 12.2996 29.9617 11.5876 29.9645 10.9501C30.936 12.3878 31.4247 14.1698 32.752 15.3481C34.259 16.7045 35.5289 18.3545 36.3311 20.2222C37.0076 21.7082 37.7609 23.1592 38.3747 24.6724C38.5127 26.1674 38.971 27.6667 38.6532 29.1732C38.0659 29.2276 37.5274 29.4844 37.0093 29.7446C36.0814 27.2477 35.4882 24.6472 34.894 22.0584C34.4535 20.2165 33.5475 18.5356 32.572 16.93C31.7512 15.5977 31.2218 14.097 30.2455 12.8579Z" fill="#234910" stroke="#234910" stroke-width="0.100881"/>
<path d="M30.0475 19.8436C29.66 17.5621 29.1317 15.0257 30.2452 12.8579C31.2216 14.097 31.7509 15.5978 32.5718 16.9301C33.5472 18.5357 34.4533 20.2165 34.8938 22.0584C35.488 24.6473 36.0812 27.2477 37.0091 29.7446C36.5074 30.0143 36.0091 30.2969 35.5198 30.5893C34.2027 29.1281 32.738 27.8148 31.3414 26.4307C30.9232 25.9814 30.3871 25.6601 29.7632 25.635L30.3098 25.5401C29.2054 23.8283 28.3055 21.8372 28.5358 19.7506C28.6631 18.8632 28.2562 18.0527 27.9068 17.266C28.9519 17.7795 29.3938 18.9477 30.0475 19.8436Z" fill="#499224" stroke="#499224" stroke-width="0.100881"/>
<path d="M38.3466 12.7463C38.4092 12.7191 38.5285 12.6606 38.5895 12.6306C38.9483 13.963 39.5024 15.2542 40.4299 16.291C41.3132 17.2746 41.6988 18.5552 42.0081 19.8115C43.3689 17.9175 46.27 17.6611 47.09 15.3302C47.8516 13.7302 48.0068 11.8958 47.5585 10.1803C48.3885 11.7368 48.9347 13.5091 48.7527 15.2881C48.6555 16.3104 48.0965 17.1995 47.7101 18.1265C47.1544 19.3429 47.0664 20.6965 46.862 21.9999L46.5272 22.1367C45.0314 22.7151 43.5718 23.473 42.4251 24.6166C41.1342 25.8138 40.5308 27.526 39.4451 28.8872C38.5211 27.5489 38.6864 25.8532 38.4353 24.3208C38.8093 21.6039 39.777 18.7773 38.8433 16.0691C38.7321 15.5464 38.6627 15.0191 38.576 14.4939C38.4841 13.9125 38.4067 13.3305 38.3466 12.7463Z" fill="#254813" stroke="#254813" stroke-width="0.100881"/>
<path d="M24.0402 24.5961C23.4813 23.7513 23.4274 22.6831 23.7774 21.7504C24.2119 23.1999 24.6884 24.9665 26.2981 25.5046C27.3746 26.1486 28.6126 25.7125 29.764 25.635C30.3879 25.6601 30.9239 25.9815 31.3421 26.4308C32.7387 27.8149 34.2034 29.1281 35.5206 30.5893C34.8481 31.0051 34.1988 31.4561 33.557 31.914C32.2435 31.0016 31.7519 29.3618 30.5486 28.3478C29.5199 27.5628 28.3001 26.9943 26.9975 26.8781C25.9691 26.1743 24.596 25.8234 24.0402 24.5961Z" fill="#224A11" stroke="#224A11" stroke-width="0.100881"/>
<path d="M15.1761 32.1307C13.7348 31.3887 13.0313 29.914 12.0016 28.7524C12.7105 29.0855 13.4797 29.2264 14.2579 29.1293C14.1008 29.2198 13.7838 29.4022 13.6239 29.4943C14.9706 30.3662 16.4663 30.9524 17.9159 31.6158C19.462 32.3 21.0206 33.0068 22.6924 33.3294C25.1585 33.7716 27.7456 33.8771 30.0403 34.9796C28.5827 35.7477 26.8507 35.865 25.5257 36.8999L25.2862 36.9952C24.6021 36.774 23.8885 36.6801 23.1715 36.6805C21.6636 36.6814 20.1834 36.2974 18.8631 35.5736C17.024 34.6668 15.5183 33.1655 13.567 32.4907C13.969 32.4018 14.7741 32.2196 15.1761 32.1307Z" fill="#244812" stroke="#244812" stroke-width="0.100881"/>
<path d="M38.1978 16.788C37.8977 16.0036 38.1463 15.175 38.5761 14.494C38.6628 15.0191 38.7322 15.5464 38.8434 16.0692C38.6842 16.2495 38.3586 16.6105 38.1978 16.788Z" fill="#AECC9E" stroke="#AECC9E" stroke-width="0.100881"/>
<path d="M13.6244 29.4942C13.7843 29.4022 14.1013 29.2198 14.2584 29.1293C16.9927 28.196 20.0848 28.714 22.7083 29.8161C25.6801 31.3211 27.9905 33.9381 31.2219 34.9559C31.0928 35.0234 30.8347 35.1586 30.7028 35.2277C30.4795 35.1514 30.2603 35.0691 30.0408 34.9796C27.7461 33.8771 25.159 33.7716 22.6929 33.3294C21.0211 33.0067 19.4625 32.3 17.9164 31.6158C16.4668 30.9524 14.9711 30.3662 13.6244 29.4942Z" fill="#4A9126" stroke="#4A9126" stroke-width="0.100881"/>
<path d="M20.4666 25.9924C20.5155 25.9469 20.6134 25.8633 20.6594 25.8194C20.8402 25.9525 21.1975 26.2247 21.3782 26.3578C21.4936 26.4863 21.7287 26.7446 21.8485 26.8745C23.3888 28.693 25.4589 30.0046 27.659 30.8821C28.604 31.2143 29.1802 32.0902 30.0135 32.5949C30.7933 32.9961 31.6287 33.2704 32.4341 33.6242C32.0714 34.1055 31.7059 34.5883 31.2212 34.9558C27.9898 33.938 25.6794 31.321 22.7077 29.816C22.2196 28.4034 21.5415 27.0551 20.4666 25.9924Z" fill="#214B0F" stroke="#214B0F" stroke-width="0.100881"/>
<path d="M36.3313 20.2222C36.9773 19.089 37.5791 17.936 38.1984 16.788C38.3591 16.6105 38.6847 16.2495 38.8439 16.0692C39.7776 18.7773 38.8099 21.604 38.4359 24.3208L38.375 24.6724C37.7611 23.1592 37.0078 21.7082 36.3313 20.2222Z" fill="#4B9028" stroke="#4B9028" stroke-width="0.100881"/>
<path d="M21.8486 26.8745C23.4515 27.8489 25.3188 27.9231 27.1377 28.0166C27.0931 27.6346 27.0428 27.2557 26.9969 26.878C28.2995 26.9942 29.5193 27.5627 30.548 28.3477C31.7513 29.3617 32.2429 31.0016 33.5564 31.9139C33.6461 31.9827 33.8313 32.1171 33.921 32.1858C33.399 32.6331 32.876 33.0919 32.4343 33.6243C31.6289 33.2705 30.7935 32.9962 30.0137 32.595C29.1804 32.0903 28.6042 31.2143 27.6592 30.8822C25.4591 30.0047 23.389 28.6931 21.8486 26.8745Z" fill="#4A9224" stroke="#4A9224" stroke-width="0.100881"/>
<path d="M38.6532 29.1732C38.971 27.6667 38.5127 26.1674 38.3747 24.6724L38.4356 24.3208C38.6867 25.8532 38.5215 27.549 39.4454 28.8872C39.2186 29.079 38.9521 29.1855 38.6532 29.1732Z" fill="#ECCF9B" stroke="#ECCF9B" stroke-width="0.100881"/>
<path d="M18.8635 35.5736C20.1838 36.2974 21.664 36.6815 23.1719 36.6806C22.0223 37.4708 20.579 37.6356 19.4244 38.4101C17.4864 39.5802 16.0501 41.3642 14.2875 42.7517C13.208 43.6621 11.675 43.7582 10.655 44.743C10.1996 44.8689 9.76576 44.4984 9.33911 44.4087C10.4636 43.9947 11.6446 43.6161 12.5664 42.8149C14.4475 41.2807 14.9404 38.6386 16.8861 37.1611C17.498 36.5755 18.2853 36.2738 19.1061 36.12C19.0454 35.9834 18.9242 35.7102 18.8635 35.5736Z" fill="#4C9028" stroke="#4C9028" stroke-width="0.100881"/>
<path d="M42.4256 24.6166C43.5724 23.4731 45.0319 22.7151 46.5277 22.1367C47.4777 22.3774 48.3898 21.9069 49.3268 21.8295C51.3162 21.5959 53.3646 21.5294 55.343 21.9119C55.7435 22.0345 56.1541 22.122 56.5727 22.157C56.9315 22.2176 57.2894 22.2899 57.645 22.3782C57.6451 22.5926 57.6509 23.0182 57.651 23.2326C56.4882 22.4994 55.1105 22.1068 53.7368 22.1298C53.3832 22.1254 53.1222 22.2954 52.9566 22.6383C52.4243 22.5514 51.8915 22.4501 51.3602 22.3517C50.6998 22.2136 50.0211 22.1965 49.3545 22.2948C49.3349 22.4534 49.2942 22.768 49.2746 22.9267C48.747 22.8817 48.2149 22.8354 47.684 22.818C46.0138 22.7459 44.5724 23.8044 43.2068 24.6252C41.3731 25.7968 41.2067 28.4545 39.1888 29.4062C37.2154 30.3851 35.1167 31.3446 33.7313 33.1338C32.5544 34.3567 31.5153 36.0767 29.659 36.2367C29.0766 36.3402 28.4905 36.4236 27.9152 36.5602C28.8715 36.1763 29.7955 35.714 30.7027 35.2278C30.8346 35.1587 31.0927 35.0235 31.2217 34.956C31.7064 34.5885 32.0719 34.1056 32.4346 33.6243C32.8764 33.092 33.3993 32.6331 33.9213 32.1859C33.8316 32.1171 33.6465 31.9827 33.5567 31.914C34.1985 31.456 34.8478 31.005 35.5203 30.5893C36.0095 30.2969 36.5078 30.0143 37.0096 29.7446C37.5276 29.4844 38.0661 29.2277 38.6534 29.1732C38.9523 29.1856 39.2189 29.0791 39.4457 28.8873C40.5313 27.5261 41.1348 25.8138 42.4256 24.6166Z" fill="#883415" stroke="#883415" stroke-width="0.100881"/>
<path d="M14.2869 42.7518C16.0494 41.3643 17.4857 39.5803 19.4238 38.4102C20.5784 37.6357 22.0216 37.4709 23.1713 36.6807C23.8883 36.6803 24.6019 36.7742 25.286 36.9953C22.2341 38.3443 19.9244 40.8362 17.3075 42.8323C16.5829 43.4617 15.6301 43.6108 14.7104 43.7194C13.3017 43.88 12.125 44.9624 10.6544 44.7431C11.6744 43.7583 13.2074 43.6622 14.2869 42.7518Z" fill="#306316" stroke="#306316" stroke-width="0.100881"/>
<path d="M49.2071 23.4741C48.589 24.0151 47.5255 23.7965 47.6839 22.818C48.2148 22.8354 48.7468 22.8817 49.2745 22.9267C49.2584 23.065 49.2247 23.3387 49.2071 23.4741Z" fill="#FFBD83" stroke="#FFBD83" stroke-width="0.100881"/>
<path d="M46.2715 24.6257C46.9136 23.9273 47.9475 24.5209 48.4613 25.0764C48.3563 26.225 45.9909 25.6976 46.2715 24.6257Z" fill="#FFC584" stroke="#FFC584" stroke-width="0.100881"/>
<path d="M17.308 42.8323C19.9249 40.8363 22.2347 38.3443 25.2865 36.9953L25.526 36.9001C24.4286 37.7649 22.9974 38.1523 22.053 39.2137C21.2846 40.0114 20.5617 40.858 19.9611 41.7923C19.8302 41.9903 19.7096 42.1937 19.5906 42.3999C18.9768 42.5873 18.0822 42.6007 17.8964 43.3688C17.6393 43.9544 18.1994 44.366 18.4809 44.8021L18.3958 45.0229C18.2489 45.5402 18.1385 46.0633 18.0413 46.5902C17.4948 45.9419 18.1806 45.0751 17.6916 44.4173C17.4039 43.9365 17.3233 43.3822 17.308 42.8323Z" fill="#FFFFEA" stroke="#FFFFEA" stroke-width="0.100881"/>
<path d="M25.5255 36.9C26.8506 35.8651 28.5826 35.7478 30.0402 34.9798C30.2597 35.0693 30.4789 35.1516 30.7022 35.2279C29.7951 35.7141 28.871 36.1763 27.9148 36.5603C26.3277 37.2814 24.4537 37.6436 23.2824 39.0372C22.826 39.5296 22.5453 40.1393 22.3115 40.7602C22.1402 40.6108 21.8037 40.316 21.634 40.1694C21.2183 40.8426 20.7541 41.5352 19.9607 41.7922C20.5613 40.8579 21.2842 40.0114 22.0526 39.2136C22.997 38.1523 24.4282 37.7648 25.5255 36.9Z" fill="#61230C" stroke="#61230C" stroke-width="0.100881"/>
<path d="M51.3599 22.3518C51.8912 22.4503 52.4241 22.5516 52.9564 22.6384C53.1099 22.8494 53.4156 23.2758 53.5678 23.4912C52.6439 24.1345 50.9575 23.7386 51.3599 22.3518Z" fill="#FFC380" stroke="#FFC380" stroke-width="0.100881"/>
<path d="M23.2828 39.0371C24.4541 37.6434 26.3281 37.2813 27.9152 36.5601C28.4904 36.4236 29.0766 36.3402 29.659 36.2367C29.2374 36.5176 28.7574 36.7531 28.4455 37.1656C27.6222 38.9217 27.36 40.83 27.3008 42.7445C26.613 44.873 27.122 47.08 27.4372 49.224C27.5102 50.8289 27.9101 52.4233 28.6779 53.8404C29.2446 54.8731 30.2268 55.6542 30.5782 56.8059C31.2583 58.8408 32.2836 61.0252 34.3442 61.9649C34.6665 62.1603 34.9914 62.3469 35.3194 62.5391C35.3025 62.8701 35.0314 63.323 35.3705 63.5756C36.2196 64.3231 37.0995 65.0461 37.8152 65.9337C38.1421 65.9565 38.4705 65.9822 38.7986 66.0006C39.2004 66.3332 39.5969 66.6762 39.9628 67.0509C41.859 69.1388 44.7455 69.9071 46.8359 71.7509C47.082 71.5337 47.3308 71.3149 47.5753 71.0949C47.8263 71.4221 48.0772 71.7493 48.3477 72.0584C48.6525 72.1082 48.9586 72.1536 49.2659 72.1946C49.3759 72.4407 49.486 72.6868 49.596 72.9329C50.6635 73.0384 51.4876 73.7071 52.2781 74.3686C53.1277 75.1305 54.3904 74.7659 55.3209 75.3463C55.8715 75.6671 56.3687 76.0653 56.8782 76.4457C57.2235 76.2809 57.5643 76.1149 57.9158 75.9614C58.08 76.5732 58.1173 77.5915 58.9287 77.6683C59.6781 77.6796 59.3204 76.6905 59.44 76.251C59.7462 76.5847 60.0371 76.9305 60.3292 77.272C60.609 77.1027 60.8889 76.9333 61.1688 76.764C62.1305 77.4677 63.3584 77.9171 64.5355 77.4778C65.1007 77.3431 65.0399 76.6373 65.2412 76.2119C65.4111 76.5062 65.5795 76.7977 65.7523 77.0905C65.9558 77.0372 66.3657 76.9292 66.5692 76.8759C66.7582 76.8233 67.1351 76.7224 67.3241 76.6697C66.7363 77.1718 66.1667 77.6935 65.5651 78.1773C65.4509 78.2182 65.2196 78.3015 65.1038 78.3396C64.6012 78.9758 63.9229 79.428 63.2219 79.8188L62.8328 80.0448C63.0166 79.3333 62.9085 78.6019 62.4035 78.0489C61.4154 78.5761 62.0493 79.5163 62.5976 80.1008C61.365 80.4931 60.1289 80.9059 58.8413 81.0513C57.7507 81.0178 56.6519 80.7152 55.5806 81.0849C54.057 80.9503 52.5316 80.558 51.116 79.9829C50.2977 79.3849 49.3613 79.0148 48.3449 78.955C46.2374 78.2519 44.3666 76.9596 42.279 76.2455L42.3091 75.9922C42.3277 75.8452 42.3624 75.5598 42.3826 75.4156C42.5957 75.2794 43.0223 75.0142 43.2371 74.8809C42.7919 74.4095 42.2597 74.0416 41.652 73.8116C41.5299 74.0121 41.284 74.4104 41.1618 74.611C40.9733 74.7114 40.5949 74.9167 40.4036 75.0186C39.4833 74.3364 38.4893 73.7615 37.4405 73.3018C36.6238 72.9543 35.9764 72.2841 35.1037 72.0562L35.1291 71.8277C35.1516 71.6341 35.1982 71.2498 35.2178 71.0578C35.4847 70.2893 35.0618 69.3361 34.1735 69.3276C34.0465 69.4791 33.7924 69.7821 33.6653 69.9336C33.28 70.0392 32.8878 70.119 32.4937 70.1887C31.9985 69.9816 31.5205 69.6984 31.1663 69.2914C30.6851 68.4333 29.8567 67.9443 28.9708 67.6054C27.2455 66.3289 25.7517 64.7286 24.3708 63.0918C23.9286 62.4451 23.4823 61.8043 22.974 61.2051C22.6442 60.4741 22.2886 59.7499 21.8511 59.0783C20.8246 57.5342 20.2715 55.736 19.1729 54.2354C18.794 53.4021 18.4926 52.5149 18.3799 51.6012C18.3121 50.9362 18.237 50.2715 18.1202 49.6114C18.3664 49.2203 18.6154 48.8277 18.8926 48.4528C19.0755 48.3555 19.4353 48.1568 19.6182 48.0595C19.8047 47.5202 19.8863 46.9317 19.6226 46.4007C19.4968 46.3001 19.244 46.1033 19.1198 46.0056C18.8508 45.6994 18.6282 45.3565 18.3958 45.0227L18.4809 44.8019C18.8479 44.0004 19.2148 43.1988 19.5906 42.3997C19.7096 42.1935 19.8302 41.9901 19.9612 41.7921C20.7546 41.5351 21.2187 40.8425 21.6344 40.1693C21.8041 40.3159 22.1406 40.6106 22.3119 40.7601C22.4365 40.9389 22.6871 41.2922 22.8118 41.4711C23.6901 40.9528 24.1707 39.8148 23.2828 39.0371ZM26.4689 43.9359C26.866 43.1288 26.6869 42.2554 26.2663 41.5006C24.9716 41.8274 25.3136 43.7051 26.4689 43.9359ZM22.379 48.0579C22.3526 47.4144 22.393 46.7378 22.0537 46.1635C20.5923 45.8135 21.1322 48.7391 22.379 48.0579ZM26.2375 49.8163C26.4014 49.7517 26.7221 49.6227 26.8816 49.5567C26.767 48.8806 26.4822 48.2578 26.1225 47.6801C24.894 47.9593 25.5165 49.294 26.2375 49.8163ZM20.6306 54.07C21.0942 53.3296 20.9756 52.3785 20.4709 51.6922C19.3567 52.0377 19.4761 53.9275 20.6306 54.07ZM23.8051 52.8159C24.006 53.4407 24.641 53.5595 25.2175 53.5258C25.234 52.7255 24.9761 51.9104 24.3781 51.3497C23.5773 51.1783 23.3594 52.3301 23.8051 52.8159ZM24.1227 58.8737C24.2968 58.7739 24.6481 58.5799 24.8194 58.4816C24.5908 57.8536 24.4721 56.6881 23.606 56.7264C22.8958 57.3885 23.5227 58.3696 24.1227 58.8737ZM28.4881 55.9601C28.8235 56.688 29.1804 58.0437 30.2534 57.4696C30.1705 56.6836 29.992 55.8985 29.3672 55.3563C29.0757 55.558 28.7797 55.7584 28.4881 55.9601ZM27.4122 59.1866C27.6365 59.9611 28.0211 61.2867 29.0697 60.6817C28.9744 59.9468 28.6375 59.29 28.2118 58.6932C27.9448 58.8591 27.6791 59.0207 27.4122 59.1866ZM26.5859 63.9832C26.3993 64.6963 27.0752 65.7797 27.8664 65.6792C28.5136 65.2847 27.8112 64.5081 27.5753 64.0543C27.3804 63.5741 26.8726 63.6253 26.5859 63.9832ZM31.5794 66.8931C31.7026 66.7881 31.9489 66.5781 32.0721 66.4731C31.821 65.7171 31.5181 64.7938 30.5923 64.6839C30.1742 65.5803 30.8085 66.4611 31.5794 66.8931ZM33.298 63.9734C33.1888 64.9136 33.8157 65.6137 34.6166 65.9995C35.2967 65.2025 34.5414 64.4106 34.1487 63.6996C33.8627 63.7909 33.5812 63.8836 33.298 63.9734ZM36.9414 68.6493C36.5616 69.3138 37.8772 70.6317 38.3796 69.7405C38.2147 69.1809 37.5721 67.7427 36.9414 68.6493ZM41.0969 69.8074C41.2698 70.174 41.444 70.5363 41.6197 70.9013C41.9032 71.0331 42.1896 71.1634 42.4759 71.2936C42.6205 71.1805 42.9081 70.9514 43.0526 70.8383C42.7598 70.268 42.4261 69.724 42.0502 69.2107C41.731 69.4091 41.4117 69.6076 41.0969 69.8074ZM40.4951 73.2231C40.6784 72.4638 40.0375 71.069 39.1363 71.5593C38.5276 72.3983 39.637 73.3495 40.4951 73.2231ZM44.9308 73.0877C44.7028 73.8865 45.4979 75.0852 46.3722 74.5395C46.5263 73.8814 45.8944 73.4133 45.5659 72.9256C45.4067 72.9654 45.0884 73.0451 44.9308 73.0877ZM49.811 73.7975C49.4067 74.4645 50.231 75.281 50.9151 75.3617C51.7076 74.8686 50.5246 73.0412 49.811 73.7975ZM45.456 76.2545C45.3929 77.1914 46.6747 77.7183 47.3385 77.1262C47.2896 76.3213 46.046 75.3815 45.456 76.2545ZM49.3667 77.3777C49.4916 77.671 49.6167 77.9643 49.7416 78.2575C50.2657 78.4968 50.8184 78.5538 51.3575 78.3116C51.066 77.4892 50.1903 76.7269 49.3667 77.3777ZM54.0593 75.9137C54.2177 76.6691 54.7028 77.2663 55.4722 77.4478C55.6002 77.318 55.8532 77.0599 55.9812 76.9301C55.6586 76.1987 54.8872 75.1903 54.0593 75.9137ZM53.7494 78.9205C53.9738 79.6617 54.9493 80.3836 55.6323 79.7661C55.7316 78.9016 54.3961 78.1234 53.7494 78.9205ZM58.2328 80.0232C58.5434 80.5319 59.0841 80.2592 59.5239 80.1383C59.2846 79.5311 58.8397 79.0669 58.2614 78.7763C58.1524 79.1545 57.7313 79.7309 58.2328 80.0232Z" fill="#9E070A" stroke="#9E070A" stroke-width="0.424318"/>
<path d="M22.3118 40.7602C22.5456 40.1394 22.8263 39.5296 23.2827 39.0373C24.1707 39.815 23.69 40.9529 22.8117 41.4713C22.687 41.2924 22.4365 40.9391 22.3118 40.7602Z" fill="#EBA56F" stroke="#EBA56F" stroke-width="0.100881"/>
<path d="M55.3427 21.9118C55.5295 21.2726 56.7191 21.4585 56.5725 22.1569C56.1538 22.1219 55.7432 22.0345 55.3427 21.9118Z" fill="#F3B8B8" stroke="#F3B8B8" stroke-width="0.100881"/>
<path d="M17.896 43.3687C18.0818 42.6006 18.9764 42.5871 19.5902 42.3997C19.2144 43.1988 18.8475 44.0004 18.4805 44.802C18.199 44.3659 17.6389 43.9543 17.896 43.3687Z" fill="#F1CC89" stroke="#F1CC89" stroke-width="0.100881"/>
<path d="M35.9712 34.0227C36.0992 33.7191 36.4271 33.5898 36.6609 33.3904C37.0687 33.9416 37.4077 34.5418 37.5568 35.2137C37.3568 35.2798 36.9581 35.4149 36.7581 35.481C36.4666 35.0135 36.0993 34.5694 35.9712 34.0227Z" fill="#FFC189" stroke="#FFC189" stroke-width="0.100881"/>
<path d="M43.9434 31.0613C43.3812 32.614 41.2004 30.0844 42.943 29.7653C43.2987 30.1751 43.7014 30.5628 43.9434 31.0613Z" fill="#FFC382" stroke="#FFC382" stroke-width="0.100881"/>
<path d="M57.645 22.3781C58.5626 22.6403 59.5899 22.8604 60.1246 23.7482C59.2482 24.1028 58.2071 24.1121 57.6511 23.2324C57.651 23.0181 57.6451 22.5924 57.645 22.3781Z" fill="#FFC88E" stroke="#FFC88E" stroke-width="0.100881"/>
<path d="M52.054 25.8098C52.4035 25.7129 52.8842 25.1775 53.2015 25.6049C53.5533 25.9874 53.74 26.4795 53.9844 26.9287C53.0663 27.5022 52.407 26.5428 52.054 25.8098Z" fill="#FFC387" stroke="#FFC387" stroke-width="0.100881"/>
<path d="M55.4875 24.6379C55.271 24.2325 55.666 23.7963 56.0903 23.9353C56.7456 23.9838 57.1349 24.5415 57.464 25.0437C56.8272 25.4102 55.8459 25.3606 55.4875 24.6379Z" fill="#FFC484" stroke="#FFC484" stroke-width="0.100881"/>
<path d="M40.4832 32.7877C41.2165 32.1942 41.7197 33.4802 41.8333 34.0607C41.3926 35.3984 39.7562 33.5331 40.4832 32.7877Z" fill="#FFC085" stroke="#FFC085" stroke-width="0.100881"/>
<path d="M18.0408 46.5902C18.138 46.0633 18.2484 45.5402 18.3953 45.0228C18.6277 45.3566 18.8503 45.6995 19.1192 46.0057C18.495 46.7164 18.6003 47.6233 18.8921 48.4529C18.6148 48.8278 18.3658 49.2205 18.1197 49.6115C18.0503 49.1914 17.9897 48.7738 17.9506 48.3481C17.9338 47.7621 17.9677 47.1741 18.0408 46.5902Z" fill="#8A3426" stroke="#8A3426" stroke-width="0.100881"/>
<path d="M47.5234 29.7311C48.2744 28.7211 49.0924 30.0551 49.3313 30.7956C48.4874 31.5168 47.8562 30.3939 47.5234 29.7311Z" fill="#FFBF80" stroke="#FFBF80" stroke-width="0.100881"/>
<path d="M26.4688 43.936C25.3135 43.7052 24.9715 41.8274 26.2662 41.5007C26.6868 42.2555 26.8659 43.1289 26.4688 43.936Z" fill="#DDA06E" stroke="#DDA06E" stroke-width="0.100881"/>
<path d="M18.8927 48.4527C18.6009 47.6231 18.4957 46.7162 19.1198 46.0055C19.2441 46.1033 19.4969 46.3001 19.6227 46.4006C19.8864 46.9316 19.8047 47.5202 19.6182 48.0594C19.4354 48.1567 19.0756 48.3554 18.8927 48.4527Z" fill="#E39B6F" stroke="#E39B6F" stroke-width="0.100881"/>
<path d="M29.5285 44.08C28.2627 44.1579 27.7773 41.5719 29.2572 41.8416C29.7361 42.5013 29.7105 43.3251 29.5285 44.08Z" fill="#FFC282" stroke="#FFC282" stroke-width="0.100881"/>
<path d="M38.7508 38.957C37.8507 39.8644 36.7057 38.2194 37.3128 37.4109C38.2189 37.0768 38.4486 38.3697 38.7508 38.957Z" fill="#FFC57C" stroke="#FFC57C" stroke-width="0.100881"/>
<path d="M17.3591 49.7972C17.4796 49.1529 17.5774 48.8905 17.9506 48.3479C17.9898 48.7736 18.0503 49.1912 18.1197 49.6114C18.2365 50.2715 18.3116 50.9362 18.3794 51.6012C17.9687 51.6542 17.9317 51.5569 17.6455 51.2731C17.288 50.9188 17.267 50.2892 17.3591 49.7972Z" fill="#EBCE94" stroke="#EBCE94" stroke-width="0.100881"/>
<path d="M22.3791 48.058C21.1323 48.7391 20.5924 45.8135 22.0539 46.1636C22.3932 46.7378 22.3528 47.4145 22.3791 48.058Z" fill="#E6A16C" stroke="#E6A16C" stroke-width="0.100881"/>
<path d="M33.088 41.7775C32.4748 41.4101 32.3544 40.6632 32.4566 40.0116C33.3685 39.7482 33.7671 40.6039 33.9517 41.3264C34.0299 41.7491 33.3682 42.1108 33.088 41.7775Z" fill="#FFBE7F" stroke="#FFBE7F" stroke-width="0.100881"/>
<path d="M48.0459 35.3287C47.5934 34.8909 46.8694 34.2963 47.4259 33.6303C48.2252 33.5179 48.4157 34.385 48.7898 34.8883C48.6031 34.9988 48.2326 35.2182 48.0459 35.3287Z" fill="#FFBE89" stroke="#FFBE89" stroke-width="0.100881"/>
<path d="M62.6287 25.5187C63.4053 25.8404 63.9438 26.5411 64.2135 27.3239L63.8472 27.3635C63.6779 27.4052 63.3436 27.4826 63.1728 27.5215C62.8997 27.1474 62.6293 26.7717 62.359 26.396C62.4484 26.1026 62.5393 25.8121 62.6287 25.5187Z" fill="#FFC894" stroke="#FFC894" stroke-width="0.100881"/>
<path d="M59.3139 28.1444C60.0389 27.208 61.1037 28.5535 60.8965 29.3297C60.2005 29.9507 59.1961 28.875 59.3139 28.1444Z" fill="#FFC47F" stroke="#FFC47F" stroke-width="0.100881"/>
<path d="M41.5084 39.9522C40.4849 38.6948 42.2356 37.0181 43.5357 37.6385C44.0799 37.8407 44.2529 38.4217 44.5051 38.885C43.9555 38.9409 43.5431 38.5623 43.1147 38.2887C42.1622 38.3379 41.8102 39.1866 41.5084 39.9522Z" fill="#ED6764" stroke="#ED6764" stroke-width="0.100881"/>
<path d="M54.7279 31.2018C54.8936 31.04 55.2236 30.7136 55.3893 30.5518C55.9013 30.9567 56.9052 31.6297 56.3806 32.3668C55.57 32.5927 55.1113 31.7554 54.7279 31.2018Z" fill="#FFBB81" stroke="#FFBB81" stroke-width="0.100881"/>
<path d="M26.2372 49.8164C25.5161 49.2941 24.8937 47.9594 26.1222 47.6802C26.4819 48.2579 26.7667 48.8807 26.8813 49.5568C26.7218 49.6228 26.4011 49.7518 26.2372 49.8164Z" fill="#E1A26C" stroke="#E1A26C" stroke-width="0.100881"/>
<path d="M43.1799 40.6298C42.6597 40.1296 41.9677 39.4322 42.4242 38.6588C43.3862 38.379 43.6842 39.4677 43.8708 40.1669C43.6988 40.284 43.3534 40.5155 43.1799 40.6298Z" fill="#FFC07C" stroke="#FFC07C" stroke-width="0.100881"/>
<path d="M45.9928 39.1906C45.438 38.3398 46.1859 37.1837 46.9901 36.7654C48.1031 36.0361 49.7043 36.7933 49.9211 38.0896C49.7247 38.0687 49.3334 38.0296 49.1414 38.01C48.6693 37.7642 48.2428 37.2197 47.6551 37.4074C46.799 37.6178 46.4766 38.5537 45.9928 39.1906Z" fill="#F97577" stroke="#F97577" stroke-width="0.100881"/>
<path d="M63.8477 27.3635L64.214 27.3239C65.0304 28.3001 65.6443 29.4251 66.4298 30.4257C66.5123 31.3451 67.0347 32.1102 67.5922 32.8117C68.5715 34.6184 69.5488 36.4818 70.0436 38.4822C69.8368 38.0677 69.6317 37.656 69.4221 37.2431C68.3703 34.87 66.978 32.6702 65.7701 30.376C65.2227 29.3178 64.5815 28.304 63.8477 27.3635Z" fill="#883415" stroke="#883415" stroke-width="0.100881"/>
<path d="M20.63 54.0701C19.4755 53.9276 19.3561 52.0378 20.4703 51.6923C20.975 52.3785 21.0936 53.3297 20.63 54.0701Z" fill="#DDA071" stroke="#DDA071" stroke-width="0.100881"/>
<path d="M54.4578 35.1109C53.6394 35.6775 51.8779 34.7574 52.633 33.7415C53.5495 33.5533 54.1299 34.39 54.4578 35.1109Z" fill="#FFC17D" stroke="#FFC17D" stroke-width="0.100881"/>
<path d="M47.695 40.0029C47.4318 39.4126 46.583 38.6723 47.3401 38.1286C47.9583 38.0163 48.1521 38.7153 48.4123 39.1261C48.4345 39.3135 48.4816 39.6868 48.5038 39.8742C48.2333 39.92 47.9657 39.9643 47.695 40.0029Z" fill="#FFC984" stroke="#FFC984" stroke-width="0.100881"/>
<path d="M62.7356 29.634C63.6671 29.0715 64.2952 30.4363 64.3178 31.2002C63.4584 31.4382 62.3137 30.5102 62.7356 29.634Z" fill="#FFC17C" stroke="#FFC17C" stroke-width="0.100881"/>
<path d="M23.8046 52.8159C23.3588 52.33 23.5767 51.1782 24.3776 51.3497C24.9756 51.9104 25.2335 52.7255 25.217 53.5257C24.6404 53.5595 24.0055 53.4406 23.8046 52.8159Z" fill="#D8A365" stroke="#D8A365" stroke-width="0.100881"/>
<path d="M34.3874 47.4372C33.6958 48.6953 32.6499 47.1361 32.9199 46.266C33.1177 46.2159 33.5178 46.117 33.7156 46.0669C33.9386 46.5242 34.1588 46.983 34.3874 47.4372Z" fill="#FFC085" stroke="#FFC085" stroke-width="0.100881"/>
<path d="M21.2064 58.7019C20.439 57.2588 19.5253 55.852 19.1723 54.2354C20.2709 55.736 20.824 57.5342 21.8505 59.0783C22.288 59.7498 22.6435 60.474 22.9733 61.2051L22.6453 60.9056C22.0075 60.2929 21.6742 59.4418 21.2064 58.7019Z" fill="#90393B" stroke="#90393B" stroke-width="0.100881"/>
<path d="M40.6928 43.2898C41.4007 42.677 42.4075 42.1839 43.3474 42.5336C44.2353 42.8159 44.7593 43.6911 44.9256 44.5679C44.2627 44.5791 43.8655 44.0072 43.393 43.6471C42.8309 43.3253 42.041 43.1737 41.5612 43.7308C41.0404 44.1736 41.0701 44.8967 40.9299 45.5065C40.877 45.6651 40.7709 45.9751 40.718 46.1337C40.0892 45.3164 39.9958 44.0962 40.6928 43.2898Z" fill="#F37673" stroke="#F37673" stroke-width="0.100881"/>
<path d="M39.092 47.2866C37.9295 47.4443 36.686 45.4137 38.1423 44.9644C38.9898 45.2874 39.19 46.4598 39.092 47.2866Z" fill="#FFC87F" stroke="#FFC87F" stroke-width="0.100881"/>
<path d="M51.274 40.0157C51.0805 37.9783 53.5458 36.2434 55.4257 37.05C56.5062 37.3997 57.5335 38.5035 57.1555 39.7067C56.7637 40.8584 57.6806 41.8827 58.663 42.3494C59.7172 42.0223 60.1201 41.0382 60.6425 40.1767L60.9789 40.1498C61.0562 40.3031 61.2135 40.6081 61.2923 40.7642C61.5739 42.6865 63.9378 43.0373 64.6055 44.7351C65.2564 45.9137 64.7611 47.2594 64.2361 48.3774C63.6673 49.4494 63.995 50.7658 64.6625 51.7133C65.3575 52.5902 66.8381 51.8168 66.9505 50.849C66.8327 49.8123 66.2047 48.8023 66.5975 47.7462C66.8123 47.7939 67.245 47.8877 67.4598 47.9354C67.7663 48.5573 68.1977 49.1509 68.316 49.8471C68.2484 50.7422 67.9356 51.5952 67.7455 52.4692C67.0157 53.4305 65.3854 52.9888 64.8163 54.0203C64.7829 55.3254 65.8739 56.3569 66.3006 57.5446C66.281 58.3392 66.245 59.2649 65.5854 59.8177C65.0199 60.1929 64.2243 60.928 63.6295 60.2324C64.0075 60.02 64.3871 59.8103 64.7727 59.6048C64.9485 58.8385 65.2104 58.0543 65.1011 57.2606C64.8389 56.056 63.3716 55.4208 62.2704 55.8034C60.9018 56.4114 62.3254 58.5606 60.7799 58.8818C59.9824 58.6494 60.3591 57.7315 60.1909 57.1257C59.9492 56.3533 59.3295 55.5125 58.4323 55.5681C57.7852 55.5077 57.3992 56.1275 57.0523 56.5705C56.6462 57.1941 56.1887 58.0124 56.574 58.7571C57.1146 59.93 58.585 59.9683 59.4807 60.7602C58.2135 61.826 56.5266 61.2418 55.2196 60.5957C54.3333 59.3254 54.9857 57.6416 54.2065 56.3713C53.0881 55.096 51.0097 56.5877 51.1224 58.0301C51.5602 58.9233 52.466 59.4656 53.1243 60.189L53.3661 60.4326C52.9872 60.5901 52.5876 60.9845 52.157 60.7269C50.9708 60.3062 50.1281 59.2891 49.6459 58.1616C49.6196 57.237 49.8812 56.3384 49.8942 55.418C49.6498 55.0022 49.3546 54.6217 49.0749 54.229C48.9672 54.0741 48.7517 53.7642 48.6424 53.6065C49.1071 53.4237 49.5953 53.2835 50.0141 53.0042C50.7511 51.8282 50.4365 50.0203 49.2358 49.2786C48.2751 48.9181 47.0013 49.47 46.745 50.4988C46.5007 51.2882 46.9423 52.061 47.151 52.8071C46.982 52.856 46.6426 52.9511 46.4737 53C45.3787 51.9411 45.5299 50.327 46.3319 49.1483C47.3979 48.2269 48.9027 48.468 50.0818 47.8316C51.3177 46.6352 49.7193 43.6471 47.9859 44.6857C47.186 45.0314 47.4223 46.0284 47.3043 46.7184C47.4469 47.405 46.4739 47.665 46.1213 47.1536C44.4523 45.5909 45.6865 42.6911 47.5632 41.8987C48.5702 41.5866 49.5333 42.2193 50.528 42.2799C51.1174 42.1689 51.5877 41.6281 52.2059 41.6897C53.2221 41.9566 54.4036 42.7571 55.3829 41.9464C56.7487 41.059 55.9799 38.8032 54.5335 38.467C53.202 37.9638 52.2792 39.4125 51.274 40.0157ZM51.1665 44.1455C50.8033 45.1816 51.4242 46.4063 52.2938 46.9834C53.6113 47.4277 54.5997 45.7765 54.0093 44.6607C53.7129 43.401 51.7771 42.8212 51.1665 44.1455ZM55.7103 45.0227C54.9295 46.0121 55.7652 47.2845 56.3141 48.1644C56.8905 49.0809 58.5493 49.1926 58.9234 48.0358C59.0945 46.6252 58.3401 45.112 57.1062 44.4107C56.5878 44.3088 56.0579 44.668 55.7103 45.0227ZM59.6989 43.5223C58.9451 44.2862 59.4303 45.4526 59.8486 46.2568C60.389 47.1082 61.6309 47.2282 62.273 46.4226C62.5311 45.2633 62.0296 43.9469 60.9935 43.336C60.5745 43.0794 60.0405 43.1969 59.6989 43.5223ZM53.8882 53.9406L53.7276 53.6966C53.8933 53.6753 54.2231 53.6299 54.3901 53.6043C55.1907 53.628 55.3388 52.6108 55.2674 51.9996C55.2642 50.7887 53.7025 49.6881 52.6418 50.4587C51.2459 51.4255 52.2322 53.9679 53.8882 53.9406ZM56.8569 53.0368C57.1597 53.8863 57.845 54.4912 58.6589 54.8403C59.1987 54.5459 60.0331 54.3697 60.0674 53.6151C60.0434 52.534 59.2995 51.4549 58.2776 51.0839C57.2104 50.7047 56.3794 52.1655 56.8569 53.0368ZM60.227 49.8742C59.3363 51.2202 60.8373 54.0587 62.5734 52.9446C63.5714 52.094 62.8462 50.5868 62.129 49.8036C61.6345 49.1894 60.6994 49.2769 60.227 49.8742Z" fill="#E58285" stroke="#E58285" stroke-width="0.424318"/>
<path d="M56.4493 36.588C55.9179 35.4248 57.3821 34.2872 58.4849 34.6172C59.2476 34.7062 59.6399 35.4433 59.9234 36.0705C59.4654 35.817 59.0248 35.5279 58.5403 35.3334C57.8731 35.2767 57.4023 35.8768 56.8978 36.222C56.7857 36.3135 56.5614 36.4965 56.4493 36.588Z" fill="#EE5A5C" stroke="#EE5A5C" stroke-width="0.100881"/>
<path d="M59.9458 33.3189C60.8656 32.2934 61.8664 34.0587 61.1865 34.8224C60.723 34.3648 60.2999 33.8665 59.9458 33.3189Z" fill="#FFBD83" stroke="#FFBD83" stroke-width="0.100881"/>
<path d="M40.9305 45.5064C41.0706 44.8966 41.041 44.1735 41.5617 43.7307C42.0416 43.1736 42.8314 43.3252 43.3936 43.6469C42.9808 44.1781 43.2017 44.8325 43.2653 45.4296C42.9545 44.8803 42.6523 43.7975 41.8168 44.1924C41.5413 44.718 41.7886 45.2728 41.9986 45.7668C41.643 45.6785 41.2861 45.5946 40.9305 45.5064Z" fill="#AB2C16" stroke="#AB2C16" stroke-width="0.100881"/>
<path d="M31.7002 52.6592C30.6213 52.7005 29.9196 50.9881 31.0355 50.4716C31.4379 51.0997 32.3499 51.9011 31.7002 52.6592Z" fill="#FFC47D" stroke="#FFC47D" stroke-width="0.100881"/>
<path d="M41.9978 45.7667C41.7878 45.2727 41.5406 44.7179 41.816 44.1924C42.6516 43.7975 42.9537 44.8802 43.2645 45.4295C43.2568 45.6297 43.2325 46.0276 43.2232 46.225C42.7465 46.2923 42.2654 46.2179 41.9978 45.7667Z" fill="#FFC878" stroke="#FFC878" stroke-width="0.100881"/>
<path d="M56.8976 36.2219C57.402 35.8768 57.8728 35.2766 58.54 35.3333C59.0246 35.5278 59.4652 35.8169 59.9231 36.0705C59.8333 36.4232 59.723 36.7725 59.5729 37.1031C59.2935 36.4366 58.7464 36.1288 58.0353 36.2738C57.6556 36.2691 57.2769 36.2527 56.8976 36.2219Z" fill="#AD1F13" stroke="#AD1F13" stroke-width="0.100881"/>
<path d="M58.0359 36.2739C58.747 36.1289 59.2941 36.4367 59.5735 37.1032C59.5685 37.4424 59.6639 37.8962 59.2005 37.934C58.3995 37.8292 58.2371 36.9059 58.0359 36.2739Z" fill="#FFC084" stroke="#FFC084" stroke-width="0.100881"/>
<path d="M53.8764 41.6953C53.27 41.106 52.531 39.8615 53.7335 39.5153C54.2377 40.1538 55.1077 41.3074 53.8764 41.6953Z" fill="#FFC282" stroke="#FFC282" stroke-width="0.100881"/>
<path d="M24.1228 58.8738C23.5227 58.3697 22.8959 57.3886 23.6061 56.7265C24.4722 56.6882 24.5909 57.8537 24.8194 58.4817C24.6482 58.58 24.2969 58.774 24.1228 58.8738Z" fill="#E0A169" stroke="#E0A169" stroke-width="0.100881"/>
<path d="M63.9403 34.4663C65.0197 33.482 66.183 35.5015 65.5422 36.336C64.6519 36.2435 64.3315 35.1413 63.9403 34.4663Z" fill="#FFC382" stroke="#FFC382" stroke-width="0.100881"/>
<path d="M67.5921 32.8116L67.6558 32.3846C68.9801 34.4814 69.4963 36.9692 70.9028 39.0206C71.3851 39.6194 71.2153 40.3897 71.1394 41.0823C70.5475 40.3186 69.9608 39.5039 70.0435 38.4822C69.5488 36.4817 68.5715 34.6184 67.5921 32.8116Z" fill="#FDC79B" stroke="#FDC79B" stroke-width="0.100881"/>
<path d="M28.488 55.9601C28.7796 55.7584 29.0756 55.558 29.3672 55.3563C29.992 55.8985 30.1705 56.6836 30.2534 57.4696C29.1803 58.0437 28.8235 56.688 28.488 55.9601Z" fill="#DAA26A" stroke="#DAA26A" stroke-width="0.100881"/>
<path d="M37.7821 51.2194C38.0446 51.0855 38.3055 50.9488 38.568 50.8149C38.9702 51.3692 39.2808 51.9851 39.4244 52.6601C39.2283 52.7536 38.839 52.939 38.6429 53.0325C38.0996 52.5709 37.847 51.9193 37.7821 51.2194Z" fill="#FFC486" stroke="#FFC486" stroke-width="0.100881"/>
<path d="M42.4659 53.8638C40.6668 53.1901 40.0619 50.4815 41.6191 49.2444C42.1486 48.6636 43.3488 48.6477 43.2406 49.6835L42.9569 49.866C42.2933 50.251 41.5567 50.7983 41.6605 51.669C41.6264 52.7119 42.7144 53.1757 43.4968 53.5681C43.2493 53.8564 42.8368 54.1137 42.4659 53.8638Z" fill="#F47679" stroke="#F47679" stroke-width="0.100881"/>
<path d="M49.6527 47.7319C48.5321 47.7111 47.7437 46.4644 48.4468 45.5216C49.3862 45.8235 49.8229 46.7949 49.6527 47.7319Z" fill="#FFC17B" stroke="#FFC17B" stroke-width="0.100881"/>
<path d="M58.1453 40.1878C58.9176 39.6984 59.5474 41.14 59.3327 41.7688C58.4724 42.4804 57.5279 40.8504 58.1453 40.1878Z" fill="#FCAC7A" stroke="#FCAC7A" stroke-width="0.100881"/>
<path d="M51.6967 44.9062C52.6693 44.1102 53.4807 45.7066 53.0798 46.5269C52.5436 46.6271 52.2075 46.1324 51.8121 45.885C51.7831 45.6385 51.7256 45.1527 51.6967 44.9062Z" fill="#FFC67E" stroke="#FFC67E" stroke-width="0.100881"/>
<path d="M22.9572 62.6569C22.4318 61.9599 22.2299 61.6195 22.6453 60.9057L22.9734 61.2052C23.4817 61.8043 23.9281 62.4451 24.3703 63.0919C23.8104 63.2495 23.5276 62.9334 22.9572 62.6569Z" fill="#EED298" stroke="#EED298" stroke-width="0.100881"/>
<path d="M27.4125 59.1867C27.6795 59.0208 27.9452 58.8592 28.2122 58.6933C28.6379 59.2901 28.9748 59.9469 29.07 60.6818C28.0214 61.2868 27.6369 59.9612 27.4125 59.1867Z" fill="#DFA269" stroke="#DFA269" stroke-width="0.100881"/>
<path d="M35.7477 55.389C35.9764 54.8191 36.6482 55.1986 36.7819 55.6349C37.2248 56.1556 37.2245 56.8915 36.785 57.4078C36.1618 56.9756 35.2942 56.2347 35.7477 55.389Z" fill="#FFC17E" stroke="#FFC17E" stroke-width="0.100881"/>
<path d="M43.8911 53.1101C43.1499 52.5915 42.4922 51.1394 43.7933 50.8978C44.1514 51.4727 44.4517 52.0833 44.5461 52.7631C44.3831 52.8495 44.0542 53.0238 43.8911 53.1101Z" fill="#FFC482" stroke="#FFC482" stroke-width="0.100881"/>
<path d="M63.5242 42.711C62.2513 42.6154 61.8311 40.5959 63.2485 40.3307C63.4409 40.8197 63.6833 41.2922 63.8229 41.7992C63.7497 42.0282 63.5973 42.482 63.5242 42.711Z" fill="#FFC180" stroke="#FFC180" stroke-width="0.100881"/>
<path d="M67.3635 38.576C67.502 38.4921 67.7747 38.323 67.9103 38.2407C68.6917 38.6447 69.4537 40.0244 68.505 40.6296C68.043 39.9938 67.6002 39.3325 67.3635 38.576Z" fill="#FFC483" stroke="#FFC483" stroke-width="0.100881"/>
<path d="M65.2567 40.2456C65.482 39.9104 65.7843 39.688 66.1637 39.5783C66.7606 39.9696 66.8627 40.7302 67.1038 41.3476C66.9589 41.4535 66.6664 41.6668 66.5215 41.7727C66.1392 41.3146 65.7499 40.8642 65.3509 40.4228L65.2567 40.2456Z" fill="#FFC17B" stroke="#FFC17B" stroke-width="0.100881"/>
<path d="M47.7649 51.4218C47.5201 50.8915 48.114 50.6079 48.4385 50.3252C48.7257 50.9725 49.4426 51.6413 49.227 52.3889C48.555 53.1002 47.9597 51.9686 47.7649 51.4218Z" fill="#FFC982" stroke="#FFC982" stroke-width="0.100881"/>
<path d="M58.1549 48.2382C57.0142 48.6094 55.6301 47.0003 56.4801 46.0022C57.7053 45.784 58.1331 47.2816 58.1549 48.2382Z" fill="#FFCA78" stroke="#FFCA78" stroke-width="0.100881"/>
<path d="M42.6728 58.9251C40.9482 60.214 38.7668 57.1745 40.2562 55.8011C40.5954 56.4086 40.8635 57.048 41.1388 57.6871C41.5026 58.2589 42.058 58.662 42.6728 58.9251Z" fill="#EA7777" stroke="#EA7777" stroke-width="0.100881"/>
<path d="M60.3121 45.3498C60.1956 44.8375 60.7899 44.7422 61.102 44.5107C61.5553 45.1106 61.9187 45.849 61.6647 46.6141C60.8494 47.3268 60.3448 46.0047 60.3121 45.3498Z" fill="#FFC57D" stroke="#FFC57D" stroke-width="0.100881"/>
<path d="M26.5858 63.9833C26.8724 63.6254 27.3802 63.5742 27.5751 64.0543C27.811 64.5082 28.5135 65.2848 27.8662 65.6793C27.0751 65.7797 26.3991 64.6964 26.5858 63.9833Z" fill="#D8A165" stroke="#D8A165" stroke-width="0.100881"/>
<path d="M33.8883 60.7783C34.2214 60.5981 34.5544 60.4179 34.889 60.2405C35.276 60.9547 35.7173 61.7203 35.3192 62.5391C34.9912 62.3468 34.6663 62.1602 34.344 61.9648C34.1887 61.5699 34.0363 61.1735 33.8883 60.7783Z" fill="#FFC17A" stroke="#FFC17A" stroke-width="0.100881"/>
<path d="M41.8502 57.1874C42.1314 57.0137 42.4545 56.3805 42.8422 56.7209C43.4875 57.2334 43.6539 58.184 43.1838 58.8725C42.6847 58.357 42.2413 57.7885 41.8502 57.1874Z" fill="#FFC480" stroke="#FFC480" stroke-width="0.100881"/>
<path d="M69.3666 41.6215C69.7306 41.4907 70.0933 41.3643 70.4589 41.2364C70.8053 41.9841 71.1214 43.0518 70.1468 43.4828C69.9246 43.0805 69.7081 42.6751 69.4916 42.2697C69.4603 42.1058 69.3963 41.7825 69.3666 41.6215Z" fill="#FFBC80" stroke="#FFBC80" stroke-width="0.100881"/>
<path d="M41.1391 57.6871C41.3684 57.7676 41.6008 57.8536 41.8344 57.9353C41.8384 57.7483 41.8462 57.3743 41.8502 57.1872C42.2413 57.7883 42.6846 58.3568 43.1837 58.8723C43.0583 58.8861 42.803 58.9125 42.6731 58.9251C42.0583 58.662 41.5029 58.2589 41.1391 57.6871Z" fill="#B54024" stroke="#B54024" stroke-width="0.100881"/>
<path d="M66.7895 46.7562C65.7134 46.4078 65.2251 44.9879 66.1728 44.2205C66.7189 44.7138 67.0885 45.3563 67.096 46.1063C67.0202 46.2702 66.8669 46.5952 66.7895 46.7562Z" fill="#FFCB7F" stroke="#FFCB7F" stroke-width="0.100881"/>
<path d="M52.8039 51.9846C53.1619 51.8497 53.5156 51.7136 53.8752 51.5815C54.1408 52.2297 54.2789 52.915 54.3897 53.6043C54.2228 53.63 53.8929 53.6754 53.7272 53.6966C53.3491 53.166 53.08 52.5715 52.8039 51.9846Z" fill="#FFC081" stroke="#FFC081" stroke-width="0.100881"/>
<path d="M45.8048 58.0422C45.4112 57.3095 45.6297 56.4198 46.0915 55.7766C46.1545 55.8638 46.2772 56.0326 46.3402 56.1198C46.5719 57.2156 47.1171 58.1826 48.1288 58.7293C47.3702 59.4107 46.1467 58.9292 45.8048 58.0422Z" fill="#EC7879" stroke="#EC7879" stroke-width="0.100881"/>
<path d="M31.579 66.8932C30.8081 66.4612 30.1738 65.5804 30.5919 64.684C31.5177 64.7938 31.8206 65.7172 32.0717 66.4732C31.9485 66.5782 31.7022 66.7882 31.579 66.8932Z" fill="#DFA36C" stroke="#DFA36C" stroke-width="0.100881"/>
<path d="M33.2979 63.9734C33.581 63.8836 33.8626 63.791 34.1485 63.6996C34.5412 64.4107 35.2965 65.2025 34.6164 65.9995C33.8155 65.6137 33.1886 64.9137 33.2979 63.9734Z" fill="#DAA060" stroke="#DAA060" stroke-width="0.100881"/>
<path d="M49.0039 57.836C47.7616 58.6995 46.1315 56.3168 47.8232 55.8521L48.0645 56.0146C48.4201 56.5983 48.7191 57.2132 49.0039 57.836Z" fill="#FFC57A" stroke="#FFC57A" stroke-width="0.100881"/>
<path d="M39.5163 61.0418C39.7373 60.7792 39.9962 60.5586 40.3003 60.3795C40.666 60.9614 41.669 62.3558 40.453 62.5504C39.9704 62.1921 39.5704 61.6552 39.5163 61.0418Z" fill="#FFC681" stroke="#FFC681" stroke-width="0.100881"/>
<path d="M69.5873 46.7677C69.3438 46.0925 68.55 45.3848 69.0604 44.6556C69.9334 44.2548 70.1458 45.1616 70.3791 45.7648C70.1252 46.1083 69.8713 46.4519 69.5873 46.7677Z" fill="#FFC47D" stroke="#FFC47D" stroke-width="0.100881"/>
<path d="M28.9706 67.6053C29.8565 67.9442 30.6848 68.4332 31.1661 69.2913C29.9869 69.8538 28.9904 68.7257 28.9706 67.6053Z" fill="#D8AC7C" stroke="#D8AC7C" stroke-width="0.100881"/>
<path d="M60.5598 50.8993C60.8119 50.76 61.0625 50.6179 61.3146 50.4787C61.8233 51.0851 62.3582 52.2611 61.4168 52.7255C60.9183 52.2245 60.6804 51.5795 60.5598 50.8993Z" fill="#FFC67E" stroke="#FFC67E" stroke-width="0.100881"/>
<path d="M71.4005 44.9899C71.7081 44.7904 72.0185 44.5894 72.3318 44.3868C72.9313 45.6196 73.3476 47.0829 73.2287 48.461C73.0862 47.8816 72.9466 47.3007 72.8113 46.721C72.6162 46.6624 72.2233 46.5467 72.0298 46.4908C71.8195 45.9896 71.6064 45.4899 71.4005 44.9899Z" fill="#FFC980" stroke="#FFC980" stroke-width="0.100881"/>
<path d="M57.7571 52.7393C58.6739 51.6414 59.3579 53.6631 58.9511 54.4127C58.1027 54.7777 57.4229 53.386 57.7571 52.7393Z" fill="#FFCA81" stroke="#FFCA81" stroke-width="0.100881"/>
<path d="M65.9541 51.8168C64.8124 52.0591 64.2518 50.1135 65.3224 49.6221C65.8119 50.2206 66.3723 51.0276 65.9541 51.8168Z" fill="#FFC482" stroke="#FFC482" stroke-width="0.100881"/>
<path d="M44.2374 64.8305C43.3546 64.0352 43.2392 62.7753 43.3225 61.6609C44.0169 61.8874 43.9896 62.775 44.3359 63.3084C44.5656 64.0725 45.381 64.3172 45.9852 64.7082C45.4345 64.9162 44.8006 65.1406 44.2374 64.8305Z" fill="#F06A69" stroke="#F06A69" stroke-width="0.100881"/>
<path d="M38.7987 66.0006C38.9117 65.5758 39.1145 65.1866 39.4051 64.856C39.8804 65.4956 40.592 66.2487 39.9629 67.0509C39.597 66.6762 39.2005 66.3332 38.7987 66.0006Z" fill="#FFBD83" stroke="#FFBD83" stroke-width="0.100881"/>
<path d="M52.2349 58.0367C52.5464 57.7907 52.8594 57.5476 53.1769 57.3057C53.7129 57.9081 54.0389 58.6523 53.9595 59.4725C53.0113 59.5563 52.6128 58.7412 52.2349 58.0367Z" fill="#FFC87D" stroke="#FFC87D" stroke-width="0.100881"/>
<path d="M44.821 62.8077C44.9894 62.7109 45.3219 62.5163 45.4875 62.4211C45.7326 62.9253 46.263 63.3903 46.1373 63.9995C45.3857 64.2519 45.0668 63.3263 44.821 62.8077Z" fill="#FFC07F" stroke="#FFC07F" stroke-width="0.100881"/>
<path d="M50.3046 64.2417C48.7001 64.4291 47.3889 62.1955 48.4056 60.9168C48.755 61.7036 48.936 62.7275 49.7985 63.1311C50.2931 63.4643 50.903 63.2901 51.4531 63.2821C51.4868 63.892 50.7686 64.1111 50.3046 64.2417Z" fill="#F16C6A" stroke="#F16C6A" stroke-width="0.100881"/>
<path d="M32.4932 70.1887C32.8872 70.119 33.2794 70.0392 33.6647 69.9336C34.1525 70.3482 34.6705 70.7239 35.2172 71.0578C35.1976 71.2498 35.151 71.6341 35.1285 71.8277C34.161 71.4415 33.3073 70.826 32.4932 70.1887Z" fill="#872C23" stroke="#872C23" stroke-width="0.100881"/>
<path d="M33.665 69.9336C33.7921 69.7821 34.0462 69.4791 34.1733 69.3276C35.0616 69.3361 35.4845 70.2893 35.2175 71.0578C34.6708 70.7239 34.1528 70.3482 33.665 69.9336Z" fill="#E29F6D" stroke="#E29F6D" stroke-width="0.100881"/>
<path d="M68.8482 50.215C69.0226 50.1224 69.3729 49.94 69.5489 49.8502C69.8166 50.3752 70.0249 50.9331 70.1155 51.5189C69.9484 51.6112 69.6109 51.7902 69.4422 51.8797C69.2153 51.3617 68.5471 50.8212 68.8482 50.215Z" fill="#FFC384" stroke="#FFC384" stroke-width="0.100881"/>
<path d="M36.9412 68.6493C37.5719 67.7427 38.2145 69.1809 38.3794 69.7405C37.877 70.6317 36.5614 69.3138 36.9412 68.6493Z" fill="#DF9F6F" stroke="#DF9F6F" stroke-width="0.100881"/>
<path d="M51.2247 62.7352C50.4027 63.6032 49.3736 61.8202 50.0851 61.1537C50.6432 61.4814 51.3711 61.9962 51.2247 62.7352Z" fill="#FFC183" stroke="#FFC183" stroke-width="0.100881"/>
<path d="M57.172 58.2533C57.4143 58.0493 57.6794 57.8733 57.969 57.7282C58.4111 58.301 58.8543 58.9029 58.8924 59.6545C58.083 59.6283 57.2245 59.1449 57.172 58.2533Z" fill="#FFC67C" stroke="#FFC67C" stroke-width="0.100881"/>
<path d="M44.7871 68.3164C43.7505 68.5414 42.9056 67.0115 44.0034 66.4755C44.5244 66.8902 45.4106 67.6245 44.7871 68.3164Z" fill="#FFBF7D" stroke="#FFBF7D" stroke-width="0.100881"/>
<path d="M66.32 56.2142C65.4489 55.7748 65.4393 54.3382 66.4622 54.0617C66.8265 54.6812 67.3028 55.9118 66.32 56.2142Z" fill="#FFC685" stroke="#FFC685" stroke-width="0.100881"/>
<path d="M72.0051 53.7028C71.5663 53.2095 70.8287 51.894 71.8851 51.6914C72.5987 51.9258 72.5505 52.836 72.6681 53.4439C72.5042 53.5086 72.1735 53.6394 72.0051 53.7028Z" fill="#FFC383" stroke="#FFC383" stroke-width="0.100881"/>
<path d="M62.0202 57.5201C62.2264 57.2842 62.4705 57.0902 62.7569 56.9395C63.0562 57.4211 63.3328 57.9154 63.5925 58.419C63.424 58.549 63.0797 58.8093 62.9112 58.9394C62.4844 58.5614 62.0721 58.1162 62.0202 57.5201Z" fill="#FFC283" stroke="#FFC283" stroke-width="0.100881"/>
<path d="M41.0969 69.8075C41.4118 69.6077 41.731 69.4092 42.0503 69.2108C42.4262 69.7241 42.7599 70.2681 43.0527 70.8384C42.9081 70.9515 42.6205 71.1806 42.476 71.2937C42.1896 71.1635 41.9033 71.0332 41.6198 70.9014C41.444 70.5364 41.2699 70.1741 41.0969 69.8075Z" fill="#DEA267" stroke="#DEA267" stroke-width="0.100881"/>
<path d="M52.0396 63.9418C52.2304 63.8253 52.6088 63.5867 52.798 63.4674C52.8785 63.7003 53.0367 64.1675 53.1144 64.4018C53.3341 64.9201 53.473 65.5532 53.9981 65.8547C54.5377 66.1557 55.1841 65.9872 55.7614 65.9346C55.6417 67.01 54.3191 66.9714 53.5322 66.7516C52.3465 66.3787 51.9909 65.0519 52.0396 63.9418Z" fill="#F27879" stroke="#F27879" stroke-width="0.100881"/>
<path d="M40.4951 73.2231C39.6369 73.3496 38.5275 72.3984 39.1363 71.5594C40.0375 71.0691 40.6784 72.4638 40.4951 73.2231Z" fill="#DFA567" stroke="#DFA567" stroke-width="0.100881"/>
<path d="M50.2498 68.1391C49.1869 68.3231 48.0136 66.7677 49.327 66.2272C49.9221 66.7156 50.3486 67.334 50.2498 68.1391Z" fill="#FFC285" stroke="#FFC285" stroke-width="0.100881"/>
<path d="M54.2327 63.8767C54.9917 63.0619 55.6053 64.4274 55.7858 65.0486C55.337 66.1172 53.7092 64.676 54.2327 63.8767Z" fill="#FFC97C" stroke="#FFC97C" stroke-width="0.100881"/>
<path d="M69.5516 55.4386C69.7351 55.3224 70.1066 55.0914 70.2946 54.9765C70.7731 55.4479 70.8688 56.1234 70.9974 56.7511C70.0085 57.471 69.5993 56.2145 69.5516 55.4386Z" fill="#FFBC7F" stroke="#FFBC7F" stroke-width="0.100881"/>
<path d="M37.4404 73.3019C38.4891 73.7616 39.4832 74.3365 40.4034 75.0187C39.9007 75.1595 39.3865 75.2661 38.8764 75.3666C38.1815 74.8446 37.7297 74.107 37.4404 73.3019Z" fill="#CD9E78" stroke="#CD9E78" stroke-width="0.100881"/>
<path d="M56.3876 64.0359C57.2704 62.9901 57.4847 64.7572 58.0044 65.2429C58.6893 66.0145 59.8585 65.0656 60.4931 65.8131C59.4058 66.7094 57.6749 66.7484 56.7335 65.6194C56.5704 65.1032 56.4573 64.5704 56.3876 64.0359Z" fill="#F37478" stroke="#F37478" stroke-width="0.100881"/>
<path d="M58.4856 64.5962C58.4236 64.0019 58.2948 63.0859 59.1456 63.0265C59.9825 63.3369 59.9994 64.4922 59.7468 65.2196C59.3242 65.0167 58.9057 64.8079 58.4856 64.5962Z" fill="#FFCA85" stroke="#FFCA85" stroke-width="0.100881"/>
<path d="M41.1612 74.6109C41.2834 74.4104 41.5293 74.0121 41.6514 73.8115C42.2591 74.0416 42.7913 74.4095 43.2365 74.8808C43.0217 75.0142 42.5951 75.2794 42.382 75.4156C41.9728 75.1499 41.5648 74.8798 41.1612 74.6109Z" fill="#E0A169" stroke="#E0A169" stroke-width="0.100881"/>
<path d="M47.5754 71.0948C47.8671 70.8265 48.1482 70.5455 48.4325 70.2703C48.6774 70.7339 48.9196 71.1991 49.1661 71.6656C48.9615 71.7638 48.5524 71.9601 48.3478 72.0583C48.0773 71.7493 47.8264 71.422 47.5754 71.0948Z" fill="#FFBF8C" stroke="#FFBF8C" stroke-width="0.100881"/>
<path d="M54.7824 69.063C53.6606 69.7564 52.759 67.5481 54.05 67.3084C54.8082 67.5366 54.617 68.4556 54.7824 69.063Z" fill="#FFC182" stroke="#FFC182" stroke-width="0.100881"/>
<path d="M62.5592 62.6794C62.7421 62.5821 63.1035 62.3862 63.2819 62.2876C63.5425 62.7796 63.9126 63.2555 63.9004 63.8427C63.6507 64.3947 63.0794 63.956 62.6851 63.878C62.6455 63.4783 62.6016 63.0774 62.5592 62.6794Z" fill="#FFBE83" stroke="#FFBE83" stroke-width="0.100881"/>
<path d="M58.9231 48.0357C59.0942 46.6251 58.3398 45.1119 57.1059 44.4106C56.5875 44.3087 56.0576 44.6679 55.7099 45.0226C54.9292 46.012 55.7649 47.2844 56.3137 48.1643C56.8901 49.0808 58.5489 49.1925 58.9231 48.0357ZM56.4801 46.0021C57.7053 45.7839 58.1332 47.2815 58.1549 48.2382C57.0142 48.6093 55.6301 47.0002 56.4801 46.0021Z" fill="#BF090D" stroke="#BF090D" stroke-width="0.424318"/>
<path d="M60.9928 43.3359C60.5738 43.0793 60.0398 43.1968 59.6982 43.5222C58.9443 44.286 59.4296 45.4525 59.8478 46.2567C60.3883 47.108 61.6302 47.2281 62.2722 46.4225C62.5304 45.2632 62.0289 43.9468 60.9928 43.3359ZM61.6645 46.6139C60.8492 47.3267 60.3445 46.0046 60.3119 45.3497C60.1953 44.8374 60.7897 44.7421 61.1017 44.5106C61.5551 45.1105 61.9185 45.8489 61.6645 46.6139Z" fill="#BF090D" stroke="#BF090D" stroke-width="0.424318"/>
<path d="M52.6412 50.4586C51.2453 51.4255 52.2316 53.9678 53.8876 53.9406L53.727 53.6965C53.3489 53.1659 53.0797 52.5715 52.8036 51.9845C53.1617 51.8496 53.5153 51.7135 53.875 51.5814C54.1405 52.2296 54.2787 52.9149 54.3895 53.6042C55.19 53.6279 55.3381 52.6108 55.2668 51.9995C55.2635 50.7887 53.7018 49.688 52.6412 50.4586Z" fill="#BF090D" stroke="#BF090D" stroke-width="0.100881"/>
<path d="M56.8563 53.0367C57.1591 53.8862 57.8444 54.4911 58.6582 54.8402C59.1981 54.5458 60.0325 54.3696 60.0668 53.615C60.0428 52.5339 59.2989 51.4548 58.277 51.0838C57.2098 50.7046 56.3788 52.1654 56.8563 53.0367ZM58.9507 54.4125C58.1024 54.7775 57.4225 53.3858 57.7567 52.7391C58.6735 51.6412 59.3575 53.6629 58.9507 54.4125Z" fill="#BF090D" stroke="#BF090D" stroke-width="0.424318"/>
<path d="M60.2269 49.8741C59.3361 51.2201 60.8372 54.0586 62.5733 52.9445C63.5713 52.0939 62.8461 50.5867 62.1289 49.8035C61.6343 49.1893 60.6993 49.2768 60.2269 49.8741ZM61.4171 52.7253C60.9185 52.2243 60.6806 51.5793 60.56 50.8991C60.8122 50.7598 61.0628 50.6178 61.3149 50.4785C61.8236 51.0849 62.3584 52.2609 61.4171 52.7253Z" fill="#BF090D" stroke="#BF090D" stroke-width="0.424318"/>
<path d="M54.009 44.6606C53.7125 43.401 51.7767 42.8212 51.1661 44.1455C50.8029 45.1816 51.4238 46.4063 52.2934 46.9834C53.6109 47.4277 54.5993 45.7765 54.009 44.6606ZM53.0801 46.5267C52.5439 46.6269 52.2078 46.1322 51.8124 45.8848C51.7835 45.6383 51.7259 45.1525 51.697 44.906C52.6697 44.11 53.4811 45.7064 53.0801 46.5267Z" fill="#BF090D" stroke="#BF090D" stroke-width="0.424318"/>
<path d="M65.7698 30.3759C65.2224 29.3177 64.5812 28.3039 63.8473 27.3634C63.6781 27.4051 63.3438 27.4825 63.173 27.5214C62.8998 27.1473 62.6295 26.7716 62.3591 26.3959C62.4485 26.1025 62.5395 25.812 62.6289 25.5186C61.8008 24.963 61.0354 24.3135 60.2318 23.7221L60.1243 23.7482C59.2479 24.1028 58.2068 24.1122 57.6508 23.2325C56.488 22.4993 55.1103 22.1067 53.7366 22.1297C53.383 22.1253 53.122 22.2953 52.9564 22.6382C53.1098 22.8492 53.4156 23.2756 53.5678 23.491C52.6439 24.1343 50.9575 23.7384 51.3599 22.3516C50.6995 22.2135 50.0209 22.1964 49.3543 22.2947C49.3347 22.4533 49.294 22.7679 49.2744 22.9266C49.2583 23.0649 49.2246 23.3386 49.207 23.474C48.5889 24.015 47.5254 23.7964 47.6838 22.8179C46.0136 22.7458 44.5722 23.8044 43.2065 24.6251C41.3729 25.7967 41.2065 28.4544 39.1885 29.4062C37.2152 30.3851 35.1164 31.3445 33.731 33.1337C32.5542 34.3566 31.5151 36.0766 29.6588 36.2366C29.2372 36.5176 28.7572 36.753 28.4453 37.1656C27.622 38.9216 27.3598 40.8299 27.3006 42.7444C26.6128 44.873 27.1218 47.08 27.437 49.2239C27.51 50.8288 27.9099 52.4232 28.6778 53.8403C29.2444 54.8731 30.2267 55.6542 30.578 56.8059C31.2582 58.8407 32.2834 61.0251 34.344 61.9649C34.1887 61.57 34.0364 61.1735 33.8884 60.7783C34.2214 60.5981 34.5544 60.4179 34.889 60.2405C35.2761 60.9547 35.7173 61.7203 35.3192 62.5391C35.3024 62.8701 35.0312 63.323 35.3704 63.5756C36.2194 64.323 37.0993 65.046 37.815 65.9337C38.1419 65.9565 38.4703 65.9821 38.7984 66.0006C38.9114 65.5759 39.1142 65.1866 39.4048 64.856C39.8801 65.4956 40.5917 66.2487 39.9626 67.0509C41.8588 69.1388 44.7453 69.9071 46.8357 71.7509C47.0818 71.5337 47.3306 71.3149 47.5751 71.0949C47.8669 70.8265 48.148 70.5455 48.4322 70.2703C48.6772 70.7339 48.9193 71.1991 49.1658 71.6656C48.9612 71.7638 48.5521 71.9602 48.3476 72.0583C48.6524 72.1081 48.9584 72.1535 49.2657 72.1946C49.3757 72.4407 49.4858 72.6868 49.5958 72.9328C50.6633 73.0383 51.4874 73.7071 52.2779 74.3686C53.1275 75.1305 54.3902 74.7659 55.3208 75.3463C55.8713 75.667 56.3685 76.0653 56.8781 76.4457C57.2233 76.2809 57.5641 76.1148 57.9157 75.9614C58.4542 75.8118 58.9803 75.9612 59.4398 76.251C59.7461 76.5846 60.0369 76.9305 60.329 77.272C60.6089 77.1026 60.8887 76.9333 61.1686 76.7639C62.1303 77.4676 63.3582 77.9171 64.5353 77.4778C65.1005 77.3431 65.0397 76.6372 65.241 76.2118C65.4628 75.8971 65.7175 75.6085 65.9694 75.3216C66.1759 75.836 66.3767 76.3536 66.569 76.8759C66.7581 76.8233 67.1349 76.7224 67.3239 76.6697C68.3904 75.8293 69.6275 74.8762 69.6489 73.3819C69.2171 72.8477 68.9498 71.6607 69.9974 71.67C70.3505 71.9075 70.6981 72.1555 71.0486 72.4019C71.5583 71.4771 71.916 70.4847 72.371 69.5346C72.6754 68.9746 73.0496 68.4538 73.3851 67.9099C73.5071 67.6354 73.5896 67.3496 73.6324 67.0524C73.6421 66.7217 73.6473 66.3898 73.6453 66.0581C72.9173 65.2956 73.4691 64.3734 74.1814 63.8692C74.422 60.0873 74.5427 56.209 73.8341 52.4892C73.803 51.1274 73.4933 49.79 73.2288 48.461C73.0863 47.8816 72.9466 47.3007 72.8114 46.721C72.6163 46.6624 72.2233 46.5466 72.0299 46.4908C71.8196 45.9896 71.6064 45.4899 71.4005 44.9899C71.7081 44.7904 72.0186 44.5894 72.3319 44.3868C71.8549 43.3155 71.6318 42.1485 71.1391 41.0823C70.5472 40.3185 69.9605 39.5038 70.0433 38.4821C69.8365 38.0676 69.6314 37.6559 69.4218 37.243C68.37 34.8699 66.9777 32.6701 65.7698 30.3759ZM31.7003 52.6591C30.6214 52.7004 29.9196 50.988 31.0356 50.4715C31.4379 51.0996 32.35 51.901 31.7003 52.6591ZM62.7351 29.6339C63.6667 29.0714 64.2948 30.4363 64.3174 31.2002C63.458 31.4382 62.3133 30.5102 62.7351 29.6339ZM60.8961 29.3297C60.2001 29.9507 59.1957 28.875 59.3136 28.1444C60.0385 27.208 61.1033 28.5535 60.8961 29.3297ZM66.5219 41.7726C66.1396 41.3146 65.7503 40.8641 65.3513 40.4227C65.3513 40.4227 65.3513 40.4227 65.3513 40.4227L65.2571 40.2454C65.4824 39.9103 65.7847 39.6879 66.1641 39.5782C66.761 39.9695 66.8631 40.7301 67.1042 41.3475C66.9593 41.4533 66.6668 41.6667 66.5219 41.7726ZM56.0905 23.9352C56.7458 23.9837 57.1351 24.5413 57.4642 25.0436C56.8274 25.41 55.8461 25.3604 55.4877 24.6378C55.2712 24.2324 55.6662 23.7961 56.0905 23.9352ZM61.1862 34.8223C60.7228 34.3647 60.2996 33.8663 59.9455 33.3188C60.8654 32.2932 61.8662 34.0586 61.1862 34.8223ZM66.1731 44.2204C66.7191 44.7137 67.0888 45.3562 67.0963 46.1062C67.0205 46.2701 66.8672 46.5951 66.7898 46.7561C65.7137 46.4077 65.2253 44.9878 66.1731 44.2204ZM63.2486 40.3306C63.441 40.8196 63.6834 41.292 63.8229 41.7991C63.7498 42.028 63.5974 42.4819 63.5242 42.7109C62.2514 42.6152 61.8312 40.5958 63.2486 40.3306ZM52.0534 25.8098C52.4029 25.7129 52.8836 25.1776 53.201 25.6049C53.5527 25.9874 53.7395 26.4795 53.9838 26.9287C53.0658 27.5022 52.4065 26.5428 52.0534 25.8098ZM55.3895 30.5518C55.9015 30.9567 56.9054 31.6298 56.3808 32.3668C55.5702 32.5927 55.1115 31.7554 54.7281 31.2018C54.8939 31.04 55.2238 30.7136 55.3895 30.5518ZM58.485 34.6171C59.2477 34.7061 59.64 35.4433 59.9235 36.0705C59.8337 36.4233 59.7234 36.7725 59.5733 37.1032C59.5683 37.4423 59.6637 37.8961 59.2002 37.934C58.3992 37.8291 58.2369 36.9058 58.0357 36.2738C57.656 36.2691 57.2772 36.2527 56.8979 36.2219C56.7858 36.3134 56.5615 36.4964 56.4494 36.5879C55.9179 35.4248 57.3821 34.2871 58.485 34.6171ZM58.1453 40.1876C58.9176 39.6983 59.5474 41.1398 59.3327 41.7686C58.4724 42.4803 57.5278 40.8503 58.1453 40.1876ZM54.458 35.1109C53.6396 35.6774 51.8782 34.7573 52.6332 33.7414C53.5497 33.5532 54.1301 34.3899 54.458 35.1109ZM46.2717 24.6256C46.9137 23.9272 47.9477 24.5207 48.4615 25.0762C48.3564 26.2248 45.9911 25.6974 46.2717 24.6256ZM47.5237 29.7311C48.2747 28.7211 49.0927 30.055 49.3316 30.7956C48.4877 31.5168 47.8565 30.3939 47.5237 29.7311ZM47.4255 33.6302C48.2249 33.5178 48.4154 34.3849 48.7895 34.8882C48.6028 34.9987 48.2322 35.2181 48.0455 35.3286C47.5931 34.8908 46.8691 34.2962 47.4255 33.6302ZM42.9434 29.7651C43.2991 30.175 43.7017 30.5626 43.9438 31.0612C43.3816 32.6138 41.2008 30.0842 42.9434 29.7651ZM46.9905 36.7653C48.1035 36.036 49.7047 36.7932 49.9215 38.0894C49.7251 38.0685 49.3338 38.0295 49.1418 38.0098C48.6696 37.7641 48.2432 37.2195 47.6555 37.4073C46.7994 37.6176 46.4771 38.5535 45.9933 39.1904C45.4384 38.3397 46.1863 37.1835 46.9905 36.7653ZM48.4125 39.1261C48.4347 39.3135 48.4819 39.6868 48.5041 39.8741C48.2336 39.92 47.966 39.9643 47.6952 40.0029C47.432 39.4125 46.5833 38.6723 47.3404 38.1285C47.9586 38.0163 48.1524 38.7152 48.4125 39.1261ZM40.483 32.7876C41.2163 32.1941 41.7194 33.4801 41.833 34.0606C41.3924 35.3983 39.7559 33.533 40.483 32.7876ZM43.5352 37.6383C44.0795 37.8406 44.2525 38.4216 44.5047 38.8849C43.9551 38.9407 43.5427 38.5622 43.1143 38.2886C42.1617 38.3377 41.8097 39.1865 41.5079 39.9521C40.4844 38.6947 42.2351 37.018 43.5352 37.6383ZM43.8706 40.1668C43.6986 40.2839 43.3532 40.5153 43.1797 40.6296C42.6595 40.1295 41.9675 39.4321 42.424 38.6587C43.3859 38.3788 43.684 39.4675 43.8706 40.1668ZM35.9707 34.0226C36.0987 33.719 36.4266 33.5896 36.6603 33.3903C37.0682 33.9414 37.4071 34.5417 37.5563 35.2136C37.3562 35.2797 36.9576 35.4148 36.7575 35.4809C36.4661 35.0134 36.0988 34.5692 35.9707 34.0226ZM37.3131 37.4108C38.2193 37.0767 38.449 38.3696 38.7511 38.9569C37.8511 39.8643 36.706 38.2193 37.3131 37.4108ZM40.6929 43.2896C41.4007 42.6769 42.4076 42.1837 43.3475 42.5334C44.2354 42.8157 44.7595 43.6909 44.9257 44.5677C44.2628 44.5789 43.8656 44.007 43.3931 43.6469C42.9803 44.178 43.2012 44.8324 43.2648 45.4295C43.2571 45.6297 43.2328 46.0276 43.2235 46.225C42.7468 46.2923 42.2657 46.2179 41.9981 45.7667C41.6425 45.6784 41.2856 45.5946 40.93 45.5063C40.8771 45.6649 40.771 45.9749 40.7181 46.1335C40.0893 45.3162 39.9959 44.096 40.6929 43.2896ZM43.7929 50.8978C44.1511 51.4727 44.4513 52.0833 44.5458 52.7631C44.3828 52.8494 44.0538 53.0237 43.8908 53.1101C43.1496 52.5914 42.4919 51.1394 43.7929 50.8978ZM46.0917 55.7765C46.1547 55.8637 46.2774 56.0325 46.3404 56.1197C46.5721 57.2155 47.1173 58.1825 48.129 58.7292C47.3704 59.4106 46.1469 58.9291 45.805 58.0422C45.4114 57.3094 45.6299 56.4197 46.0917 55.7765ZM50.0854 61.1536C50.6434 61.4813 51.3714 61.9961 51.2249 62.7351C50.4029 63.6031 49.3739 61.8201 50.0854 61.1536ZM47.8229 55.8519L48.0642 56.0144C48.4198 56.5981 48.7188 57.213 49.0036 57.8358C47.7613 58.6993 46.1312 56.3166 47.8229 55.8519ZM38.1425 44.9643C38.9901 45.2873 39.1902 46.4597 39.0923 47.2865C37.9298 47.4442 36.6864 45.4135 38.1425 44.9643ZM41.619 49.2443C42.1486 48.6634 43.3488 48.6476 43.2405 49.6834L42.9569 49.8659C42.2933 50.2509 41.5567 50.7982 41.6604 51.6688C41.6263 52.7117 42.7144 53.1756 43.4967 53.568C43.2492 53.8563 42.8368 54.1136 42.4659 53.8637C40.6667 53.19 40.0618 50.4813 41.619 49.2443ZM32.457 40.0114C33.3689 39.748 33.7675 40.6037 33.9521 41.3262C34.0303 41.7489 33.3686 42.1106 33.0884 41.7773C32.4751 41.4099 32.3547 40.663 32.457 40.0114ZM37.7816 51.2193C38.0441 51.0854 38.305 50.9488 38.5675 50.8149C38.9698 51.3691 39.2804 51.9851 39.4239 52.66C39.2278 52.7535 38.8385 52.9389 38.6425 53.0324C38.0992 52.5709 37.8465 51.9192 37.7816 51.2193ZM32.9203 46.266C33.1181 46.2159 33.5182 46.1169 33.7161 46.0668C33.939 46.5241 34.1592 46.983 34.3878 47.4371C33.6963 48.6953 32.6503 47.136 32.9203 46.266ZM29.2568 41.8415C29.7358 42.5013 29.7101 43.3251 29.5281 44.08C28.2623 44.1579 27.7769 41.5719 29.2568 41.8415ZM36.785 57.4078C36.1618 56.9755 35.2942 56.2346 35.7477 55.3889C35.9764 54.819 36.6482 55.1985 36.7819 55.6348C37.2248 56.1556 37.2245 56.8914 36.785 57.4078ZM39.5166 61.0418C39.7376 60.7792 39.9965 60.5586 40.3006 60.3795C40.6663 60.9614 41.6693 62.3558 40.4533 62.5504C39.9707 62.1921 39.5707 61.6552 39.5166 61.0418ZM44.7873 68.3163C43.7507 68.5413 42.9058 67.0114 44.0036 66.4755C44.5247 66.8901 45.4108 67.6244 44.7873 68.3163ZM44.2375 64.8304C43.3547 64.0351 43.2393 62.7753 43.3226 61.6609C44.0171 61.8874 43.9897 62.775 44.336 63.3084C44.5657 64.0725 45.3811 64.3172 45.9853 64.7082C45.4346 64.9161 44.8007 65.1405 44.2375 64.8304ZM46.1373 63.9994C45.3857 64.2518 45.0668 63.3262 44.821 62.8076C44.9894 62.7109 45.3219 62.5162 45.4874 62.421C45.7326 62.9252 46.263 63.3902 46.1373 63.9994ZM43.1838 58.8723C43.0583 58.8862 42.803 58.9126 42.6732 58.9251C40.9486 60.214 38.7672 57.1744 40.2565 55.8011C40.5957 56.4086 40.8638 57.048 41.1392 57.6871C41.3684 57.7675 41.6008 57.8536 41.8345 57.9353C41.8384 57.7483 41.8462 57.3743 41.8502 57.1872C42.1313 57.0135 42.4545 56.3803 42.8422 56.7207C43.4875 57.2332 43.6539 58.1839 43.1838 58.8723ZM49.3269 66.227C49.922 66.7154 50.3486 67.3338 50.2498 68.1389C49.1868 68.323 48.0135 66.7675 49.3269 66.227ZM54.2293 73.3833C53.677 74.3649 52.1858 72.7558 52.9319 72.0517C53.6477 71.5269 54.1972 72.7762 54.2293 73.3833ZM48.4055 60.9167C48.7549 61.7035 48.9359 62.7274 49.7984 63.131C50.2929 63.4642 50.9029 63.29 51.453 63.2819C51.4867 63.8919 50.7685 64.111 50.3045 64.2416C48.6999 64.429 47.3888 62.1954 48.4055 60.9167ZM54.7824 69.0629C53.6607 69.7563 52.759 67.548 54.05 67.3082C54.8082 67.5365 54.617 68.4555 54.7824 69.0629ZM53.5318 66.7515C52.3461 66.3786 51.9905 65.0518 52.0391 63.9417C52.23 63.8252 52.6084 63.5866 52.7976 63.4674C52.8781 63.7002 53.0363 64.1674 53.114 64.4017C53.3337 64.92 53.4726 65.5531 53.9977 65.8546C54.5373 66.1556 55.1837 65.9871 55.761 65.9345C55.6413 67.0099 54.3187 66.9713 53.5318 66.7515ZM54.2325 63.8765C54.9914 63.0617 55.6051 64.4272 55.7855 65.0485C55.3368 66.117 53.709 64.6758 54.2325 63.8765ZM58.971 73.2934C58.219 73.9601 57.794 72.8491 57.4237 72.366C57.9905 71.1028 59.2912 72.3402 58.971 73.2934ZM62.0727 76.7674C60.974 76.6459 60.7425 74.9548 61.9194 74.7226C62.2527 75.2927 62.9538 76.3547 62.0727 76.7674ZM58.3467 69.1907C58.0676 68.6719 57.2732 67.7021 58.3019 67.4963C59.0933 67.6507 59.3223 68.9957 58.3467 69.1907ZM52.2348 58.0366C52.5463 57.7907 52.8593 57.5475 53.1768 57.3057C53.7128 57.908 54.0388 58.6523 53.9594 59.4725C53.0111 59.5562 52.6127 58.7411 52.2348 58.0366ZM63.1361 72.7752C62.5121 73.1383 62.1205 72.2417 61.9793 71.7651C61.8272 71.2687 62.5268 71.1633 62.7978 70.9175C62.9963 71.4845 63.6753 72.2186 63.1361 72.7752ZM56.733 65.6195C56.5699 65.1033 56.4569 64.5705 56.3872 64.0359C57.27 62.9901 57.4843 64.7573 58.0039 65.243C58.6888 66.0145 59.858 65.0656 60.4927 65.8131C59.4053 66.7094 57.6745 66.7484 56.733 65.6195ZM59.747 65.2194C59.3244 65.0165 58.9059 64.8077 58.4859 64.596C58.4239 64.0017 58.2951 63.0857 59.1459 63.0263C59.9828 63.3367 59.9997 64.492 59.747 65.2194ZM61.9141 67.3092C62.1304 67.212 62.5584 67.0163 62.7717 66.9206C63.0789 67.4904 63.3113 68.1052 63.1455 68.7623C62.4309 68.5729 62.0806 67.9788 61.9141 67.3092ZM67.8704 74.4861C66.8221 75.4865 65.5922 73.1859 66.9888 72.8361C67.4037 73.3131 67.6579 73.8937 67.8704 74.4861ZM58.8919 59.6543C58.0825 59.6281 57.224 59.1447 57.1716 58.2531C57.4138 58.0491 57.6789 57.8731 57.9685 57.7279C58.4106 58.3008 58.8538 58.9027 58.8919 59.6543ZM67.5646 71.3683C66.5364 71.4481 65.676 69.7495 66.9859 69.4771C67.3372 70.0262 68.2188 70.7187 67.5646 71.3683ZM62.3017 64.7106C62.9216 64.7084 63.5576 64.7823 64.169 64.6443C64.9848 64.3675 64.9202 63.4271 65.0951 62.7464L65.1752 62.4027C65.4707 62.7571 65.6495 63.1612 65.7056 63.6108C65.9618 65.34 63.1789 66.1116 62.3017 64.7106ZM62.6848 63.8779C62.6452 63.4783 62.6013 63.0774 62.5589 62.6793C62.7418 62.582 63.103 62.3862 63.2816 62.2876C63.5422 62.7796 63.9123 63.2555 63.9001 63.8426C63.6504 64.3946 63.0791 63.9559 62.6848 63.8779ZM62.0202 57.52C62.2264 57.2842 62.4705 57.0902 62.7569 56.9394C63.0562 57.4211 63.3328 57.9153 63.5924 58.4189C63.424 58.5489 63.0797 58.8093 62.9113 58.9393C62.4844 58.5613 62.0722 58.1161 62.0202 57.52ZM67.95 66.4565C67.2038 66.5914 66.6221 65.7924 66.7156 65.1049C66.8982 65.0003 67.263 64.7841 67.4456 64.6795C67.7447 65.2279 67.9243 65.8274 67.95 66.4565ZM66.824 60.3608C66.9739 60.2707 67.2751 60.0932 67.425 60.0031C67.888 60.52 68.0554 61.1781 67.9484 61.8546C67.8143 61.9397 67.5489 62.1085 67.4148 62.1937C66.9675 61.6717 66.6988 61.0511 66.824 60.3608ZM71.5641 68.6493C70.9561 68.3382 70.6104 67.786 70.5454 67.1194C70.7168 66.9878 71.0582 66.729 71.2295 66.5974C71.8364 67.1274 71.8249 67.9434 71.5641 68.6493ZM66.3196 56.214C65.4484 55.7746 65.4388 54.3381 66.4617 54.0615C66.8261 54.681 67.3023 55.9116 66.3196 56.214ZM71.0467 63.9367C70.5433 63.3533 70.0096 61.9585 71.1396 61.7485C71.9291 62.1406 71.9084 63.616 71.0467 63.9367ZM64.816 54.0203C64.7825 55.3253 65.8735 56.3569 66.3002 57.5446C66.2806 58.3392 66.2446 59.2648 65.585 59.8177C65.0195 60.1928 64.2239 60.928 63.6291 60.2324C64.0072 60.0199 64.3868 59.8103 64.7724 59.6047C64.9481 58.8385 65.2101 58.0542 65.1008 57.2606C64.8385 56.056 63.3712 55.4208 62.27 55.8034C60.9014 56.4113 62.325 58.5606 60.7795 58.8817C59.982 58.6493 60.3587 57.7315 60.1905 57.1256C59.9488 56.3533 59.3292 55.5125 58.4319 55.568C57.7849 55.5076 57.3988 56.1275 57.0519 56.5704C56.6458 57.194 56.1883 58.0123 56.5737 58.757C57.1142 59.9299 58.5846 59.9682 59.4804 60.7601C58.2131 61.826 56.5262 61.2418 55.2193 60.5956C54.3329 59.3254 54.9853 57.6415 54.2061 56.3712C53.0877 55.0959 51.0094 56.5876 51.122 58.0301C51.5598 58.9233 52.4657 59.4656 53.124 60.189L53.3657 60.4325C52.9869 60.59 52.5873 60.9844 52.1567 60.7269C50.9704 60.3061 50.1277 59.289 49.6456 58.1615C49.6193 57.237 49.8809 56.3383 49.8939 55.418C49.6494 55.0021 49.3543 54.6216 49.0745 54.229C48.9668 54.074 48.7513 53.7642 48.642 53.6064C49.1068 53.4237 49.595 53.2835 50.0138 53.0041C50.7507 51.8281 50.4362 50.0202 49.2354 49.2785C48.2747 48.9181 47.0009 49.47 46.7446 50.4988C46.5003 51.2881 46.9419 52.0609 47.1506 52.8071C46.9816 52.856 46.6423 52.951 46.4734 52.9999C45.3784 51.941 45.5295 50.3269 46.3316 49.1483C47.3976 48.2268 48.9024 48.4679 50.0815 47.8315C51.3173 46.6351 49.7189 43.6471 47.9855 44.6857C47.1856 45.0313 47.422 46.0284 47.3039 46.7184C47.4465 47.405 46.4736 47.665 46.1209 47.1536C44.452 45.5909 45.6861 42.6911 47.5628 41.8986C48.5698 41.5865 49.5329 42.2192 50.5277 42.2799C51.117 42.1688 51.5874 41.6281 52.2055 41.6897C53.2217 41.9566 54.4032 42.757 55.3826 41.9463C56.7484 41.0589 55.9795 38.8032 54.5332 38.4669C53.2016 37.9638 52.2788 39.4125 51.2736 40.0157C51.0801 37.9783 53.5455 36.2433 55.4254 37.0499C56.5058 37.3997 57.5331 38.5034 57.1551 39.7067C56.7633 40.8584 57.6802 41.8826 58.6626 42.3494C59.7168 42.0223 60.1197 41.0382 60.6421 40.1766L60.9786 40.1498C61.0558 40.3031 61.2132 40.6081 61.292 40.7642C61.5735 42.6864 63.9374 43.0372 64.6052 44.7351C65.256 45.9136 64.7607 47.2593 64.2357 48.3774C63.667 49.4494 63.9946 50.7657 64.6621 51.7132C65.3571 52.5901 66.8377 51.8168 66.9502 50.8489C66.8324 49.8122 66.2044 48.8023 66.5971 47.7461C66.812 47.7938 67.2446 47.8876 67.4595 47.9353C67.766 48.5572 68.1973 49.1509 68.3157 49.8471C68.248 50.7422 67.9353 51.5951 67.7451 52.4691C67.0153 53.4304 65.385 52.9888 64.816 54.0203ZM49.2266 52.3889C48.5546 53.1001 47.9593 51.9686 47.7646 51.4217C47.5197 50.8915 48.1136 50.6079 48.4381 50.3252C48.7254 50.9725 49.4423 51.6413 49.2266 52.3889ZM48.4471 45.5214C49.3865 45.8234 49.8232 46.7948 49.6529 47.7318C48.5324 47.711 47.744 46.4643 48.4471 45.5214ZM53.733 39.5151C54.2372 40.1536 55.1072 41.3072 53.8759 41.6951C53.2695 41.1058 52.5304 39.8614 53.733 39.5151ZM65.954 51.8168C64.8124 52.0591 64.2518 50.1135 65.3224 49.622C65.8119 50.2205 66.3722 51.0276 65.954 51.8168ZM69.5514 55.4386C69.7349 55.3224 70.1064 55.0913 70.2944 54.9765C70.7729 55.4479 70.8686 56.1233 70.9972 56.7511C70.0083 57.471 69.5991 56.2145 69.5514 55.4386ZM72.2573 60.5323C71.5802 60.0226 71.1746 58.4314 72.385 58.3804C73.0276 58.9349 72.9692 60.0541 72.2573 60.5323ZM70.1151 51.5189C69.948 51.6112 69.6105 51.7902 69.4418 51.8796C69.2149 51.3617 68.5467 50.8212 68.8478 50.215C69.0222 50.1224 69.3725 49.94 69.5485 49.8502C69.8162 50.3752 70.0245 50.933 70.1151 51.5189ZM72.668 53.4437C72.5041 53.5084 72.1734 53.6393 72.0051 53.7027C71.5662 53.2093 70.8286 51.8938 71.885 51.6912C72.5986 51.9256 72.5504 52.8358 72.668 53.4437ZM70.3792 45.7647C70.1253 46.1082 69.8714 46.4518 69.5874 46.7676C69.3439 46.0924 68.5501 45.3847 69.0605 44.6555C69.9335 44.2547 70.1459 45.1615 70.3792 45.7647ZM65.5416 36.3358C64.6514 36.2433 64.331 35.1411 63.9398 34.4661C65.0192 33.4818 66.1825 35.5013 65.5416 36.3358ZM67.363 38.576C67.5015 38.4921 67.7741 38.323 67.9098 38.2407C68.6912 38.6447 69.4531 40.0243 68.5045 40.6296C68.0424 39.9938 67.5996 39.3325 67.363 38.576ZM70.1466 43.4826C69.9245 43.0803 69.708 42.6749 69.4915 42.2695C69.4601 42.1056 69.3962 41.7823 69.3664 41.6213C69.7305 41.4905 70.0932 41.3641 70.4588 41.2362C70.8052 41.9839 71.1212 43.0515 70.1466 43.4826Z" fill="#BF090D"/>
<path d="M67.5851 41.1889C67.5093 41.3772 67.4068 41.5482 67.2805 41.7002M65.3513 40.4227C65.7503 40.8641 66.1396 41.3146 66.5219 41.7726C66.6668 41.6667 66.9593 41.4533 67.1042 41.3475C66.8631 40.7301 66.761 39.9695 66.1641 39.5782C65.7847 39.6879 65.4824 39.9103 65.2571 40.2454L65.3513 40.4227ZM65.3513 40.4227C65.3513 40.4227 65.3513 40.4227 65.3513 40.4227ZM46.9804 39.6073C46.8603 39.4893 46.7466 39.3622 46.6258 39.2514M43.2359 50.418C43.4731 50.4069 43.6823 50.4453 43.868 50.5215M65.7698 30.3759C65.2224 29.3177 64.5812 28.3039 63.8473 27.3634C63.6781 27.4051 63.3438 27.4825 63.173 27.5214C62.8998 27.1473 62.6295 26.7716 62.3591 26.3959C62.4485 26.1025 62.5395 25.812 62.6289 25.5186C61.8008 24.963 61.0354 24.3135 60.2318 23.7221L60.1243 23.7482C59.2479 24.1028 58.2068 24.1122 57.6508 23.2325C56.488 22.4993 55.1103 22.1067 53.7366 22.1297C53.383 22.1253 53.122 22.2953 52.9564 22.6382C53.1098 22.8492 53.4156 23.2756 53.5678 23.491C52.6439 24.1343 50.9575 23.7384 51.3599 22.3516C50.6995 22.2135 50.0209 22.1964 49.3543 22.2947C49.3347 22.4533 49.294 22.7679 49.2744 22.9266C49.2583 23.0649 49.2246 23.3386 49.207 23.474C48.5889 24.015 47.5254 23.7964 47.6838 22.8179C46.0136 22.7458 44.5722 23.8044 43.2065 24.6251C41.3729 25.7967 41.2065 28.4544 39.1885 29.4062C37.2152 30.3851 35.1164 31.3445 33.731 33.1337C32.5542 34.3566 31.5151 36.0766 29.6588 36.2366C29.2372 36.5176 28.7572 36.753 28.4453 37.1656C27.622 38.9216 27.3598 40.8299 27.3006 42.7444C26.6128 44.873 27.1218 47.08 27.437 49.2239C27.51 50.8288 27.9099 52.4232 28.6778 53.8403C29.2444 54.8731 30.2267 55.6542 30.578 56.8059C31.2582 58.8407 32.2834 61.0251 34.344 61.9649C34.1887 61.57 34.0364 61.1735 33.8884 60.7783C34.2214 60.5981 34.5544 60.4179 34.889 60.2405C35.2761 60.9547 35.7173 61.7203 35.3192 62.5391C35.3024 62.8701 35.0312 63.323 35.3704 63.5756C36.2194 64.323 37.0993 65.046 37.815 65.9337C38.1419 65.9565 38.4703 65.9821 38.7984 66.0006C38.9114 65.5759 39.1142 65.1866 39.4048 64.856C39.8801 65.4956 40.5917 66.2487 39.9626 67.0509C41.8588 69.1388 44.7453 69.9071 46.8357 71.7509C47.0818 71.5337 47.3306 71.3149 47.5751 71.0949C47.8669 70.8265 48.148 70.5455 48.4322 70.2703C48.6772 70.7339 48.9193 71.1991 49.1658 71.6656C48.9612 71.7638 48.5521 71.9602 48.3476 72.0583C48.6524 72.1081 48.9584 72.1535 49.2657 72.1946C49.3757 72.4407 49.4858 72.6868 49.5958 72.9328C50.6633 73.0383 51.4874 73.7071 52.2779 74.3686C53.1275 75.1305 54.3902 74.7659 55.3208 75.3463C55.8713 75.667 56.3685 76.0653 56.8781 76.4457C57.2233 76.2809 57.5641 76.1148 57.9157 75.9614C58.4542 75.8119 58.9803 75.9612 59.4398 76.251C59.7461 76.5846 60.0369 76.9305 60.329 77.272C60.6089 77.1026 60.8887 76.9333 61.1686 76.7639C62.1303 77.4676 63.3582 77.9171 64.5353 77.4778C65.1005 77.3431 65.0397 76.6372 65.241 76.2118C65.4628 75.8971 65.7175 75.6085 65.9694 75.3216C66.1759 75.836 66.3767 76.3536 66.569 76.8759C66.7581 76.8233 67.1349 76.7224 67.3239 76.6697C68.3904 75.8293 69.6275 74.8762 69.6489 73.3819C69.2171 72.8477 68.9498 71.6607 69.9974 71.67C70.3505 71.9075 70.6981 72.1555 71.0486 72.4019C71.5583 71.4771 71.916 70.4847 72.371 69.5346C72.6754 68.9746 73.0496 68.4538 73.3851 67.9099C73.5071 67.6354 73.5896 67.3496 73.6324 67.0524C73.6421 66.7217 73.6473 66.3898 73.6453 66.0581C72.9173 65.2956 73.4691 64.3734 74.1814 63.8692C74.422 60.0873 74.5427 56.209 73.8341 52.4892C73.803 51.1274 73.4933 49.79 73.2288 48.461C73.0863 47.8816 72.9466 47.3007 72.8114 46.721C72.6163 46.6624 72.2233 46.5466 72.0299 46.4908C71.8196 45.9896 71.6064 45.4899 71.4005 44.9899C71.7081 44.7904 72.0186 44.5894 72.3319 44.3868C71.8549 43.3155 71.6318 42.1485 71.1391 41.0823C70.5472 40.3185 69.9605 39.5038 70.0433 38.4821C69.8365 38.0676 69.6314 37.6559 69.4218 37.243C68.37 34.8699 66.9777 32.6701 65.7698 30.3759ZM31.7003 52.6591C30.6214 52.7004 29.9196 50.988 31.0356 50.4715C31.4379 51.0996 32.35 51.901 31.7003 52.6591ZM62.7351 29.6339C63.6667 29.0714 64.2948 30.4363 64.3174 31.2002C63.458 31.4382 62.3133 30.5102 62.7351 29.6339ZM60.8961 29.3297C60.2001 29.9507 59.1957 28.875 59.3136 28.1444C60.0385 27.208 61.1033 28.5535 60.8961 29.3297ZM56.0905 23.9352C56.7458 23.9837 57.1351 24.5413 57.4642 25.0436C56.8274 25.41 55.8461 25.3604 55.4877 24.6378C55.2712 24.2324 55.6662 23.7961 56.0905 23.9352ZM61.1862 34.8223C60.7228 34.3647 60.2996 33.8663 59.9455 33.3188C60.8654 32.2932 61.8662 34.0586 61.1862 34.8223ZM66.1731 44.2204C66.7191 44.7137 67.0888 45.3562 67.0963 46.1062C67.0205 46.2701 66.8672 46.5951 66.7898 46.7561C65.7137 46.4077 65.2253 44.9878 66.1731 44.2204ZM63.2486 40.3306C63.441 40.8196 63.6834 41.292 63.8229 41.7991C63.7498 42.028 63.5974 42.4819 63.5242 42.7109C62.2514 42.6152 61.8312 40.5958 63.2486 40.3306ZM52.0534 25.8098C52.4029 25.7129 52.8836 25.1776 53.201 25.6049C53.5527 25.9874 53.7395 26.4795 53.9838 26.9287C53.0658 27.5022 52.4065 26.5428 52.0534 25.8098ZM55.3895 30.5518C55.9015 30.9567 56.9054 31.6298 56.3808 32.3668C55.5702 32.5927 55.1115 31.7554 54.7281 31.2018C54.8939 31.04 55.2238 30.7136 55.3895 30.5518ZM58.485 34.6171C59.2477 34.7061 59.64 35.4433 59.9235 36.0705C59.8337 36.4233 59.7234 36.7725 59.5733 37.1032C59.5683 37.4423 59.6637 37.8961 59.2002 37.934C58.3992 37.8291 58.2369 36.9058 58.0357 36.2738C57.656 36.2691 57.2772 36.2527 56.8979 36.2219C56.7858 36.3134 56.5615 36.4964 56.4494 36.5879C55.9179 35.4248 57.3821 34.2871 58.485 34.6171ZM58.1453 40.1876C58.9176 39.6983 59.5474 41.1398 59.3327 41.7686C58.4724 42.4803 57.5278 40.8503 58.1453 40.1876ZM54.458 35.1109C53.6396 35.6774 51.8782 34.7573 52.6332 33.7414C53.5497 33.5532 54.1301 34.3899 54.458 35.1109ZM46.2717 24.6256C46.9137 23.9272 47.9477 24.5207 48.4615 25.0762C48.3564 26.2248 45.9911 25.6974 46.2717 24.6256ZM47.5237 29.7311C48.2747 28.7211 49.0927 30.055 49.3316 30.7956C48.4877 31.5168 47.8565 30.3939 47.5237 29.7311ZM47.4255 33.6302C48.2249 33.5178 48.4154 34.3849 48.7895 34.8882C48.6028 34.9987 48.2322 35.2181 48.0455 35.3286C47.5931 34.8908 46.8691 34.2962 47.4255 33.6302ZM42.9434 29.7651C43.2991 30.175 43.7017 30.5626 43.9438 31.0612C43.3816 32.6138 41.2008 30.0842 42.9434 29.7651ZM46.9905 36.7653C48.1035 36.036 49.7047 36.7932 49.9215 38.0894C49.7251 38.0685 49.3338 38.0295 49.1418 38.0098C48.6696 37.7641 48.2432 37.2195 47.6555 37.4073C46.7994 37.6176 46.4771 38.5535 45.9933 39.1904C45.4384 38.3397 46.1863 37.1835 46.9905 36.7653ZM48.4125 39.1261C48.4347 39.3135 48.4819 39.6868 48.5041 39.8741C48.2336 39.92 47.966 39.9643 47.6952 40.0029C47.432 39.4125 46.5833 38.6723 47.3404 38.1285C47.9586 38.0163 48.1524 38.7152 48.4125 39.1261ZM40.483 32.7876C41.2163 32.1941 41.7194 33.4801 41.833 34.0606C41.3924 35.3983 39.7559 33.533 40.483 32.7876ZM43.5352 37.6383C44.0795 37.8406 44.2525 38.4216 44.5047 38.8849C43.9551 38.9407 43.5427 38.5622 43.1143 38.2886C42.1617 38.3377 41.8097 39.1865 41.5079 39.9521C40.4844 38.6947 42.2351 37.018 43.5352 37.6383ZM43.8706 40.1668C43.6986 40.2839 43.3532 40.5153 43.1797 40.6296C42.6595 40.1295 41.9675 39.4321 42.424 38.6587C43.3859 38.3788 43.684 39.4675 43.8706 40.1668ZM35.9707 34.0226C36.0987 33.719 36.4266 33.5896 36.6603 33.3903C37.0682 33.9414 37.4071 34.5417 37.5563 35.2136C37.3562 35.2797 36.9576 35.4148 36.7575 35.4809C36.4661 35.0134 36.0988 34.5692 35.9707 34.0226ZM37.3131 37.4108C38.2193 37.0767 38.449 38.3696 38.7511 38.9569C37.8511 39.8643 36.706 38.2193 37.3131 37.4108ZM40.6929 43.2896C41.4007 42.6769 42.4076 42.1837 43.3475 42.5334C44.2354 42.8157 44.7594 43.6909 44.9257 44.5677C44.2628 44.5789 43.8656 44.007 43.3931 43.6469C42.9803 44.178 43.2012 44.8324 43.2648 45.4295C43.2571 45.6297 43.2328 46.0276 43.2235 46.225C42.7468 46.2923 42.2657 46.2179 41.9981 45.7667C41.6425 45.6784 41.2856 45.5946 40.93 45.5063C40.8771 45.6649 40.771 45.9749 40.7181 46.1335C40.0893 45.3162 39.9959 44.096 40.6929 43.2896ZM43.7929 50.8978C44.1511 51.4727 44.4513 52.0833 44.5458 52.7631C44.3828 52.8494 44.0538 53.0237 43.8908 53.1101C43.1496 52.5914 42.4919 51.1394 43.7929 50.8978ZM46.0917 55.7765C46.1547 55.8637 46.2774 56.0325 46.3404 56.1197C46.5721 57.2155 47.1173 58.1825 48.129 58.7292C47.3704 59.4106 46.1469 58.9291 45.805 58.0422C45.4114 57.3094 45.6299 56.4197 46.0917 55.7765ZM50.0854 61.1536C50.6434 61.4813 51.3714 61.9961 51.2249 62.7351C50.4029 63.6031 49.3739 61.8201 50.0854 61.1536ZM47.8229 55.8519L48.0642 56.0144C48.4198 56.5981 48.7188 57.213 49.0036 57.8358C47.7613 58.6993 46.1312 56.3166 47.8229 55.8519ZM38.1425 44.9643C38.9901 45.2873 39.1902 46.4597 39.0923 47.2865C37.9298 47.4442 36.6864 45.4135 38.1425 44.9643ZM41.619 49.2443C42.1486 48.6634 43.3488 48.6476 43.2405 49.6834L42.9569 49.8659C42.2933 50.2509 41.5567 50.7982 41.6604 51.6688C41.6263 52.7117 42.7144 53.1756 43.4967 53.568C43.2492 53.8563 42.8368 54.1136 42.4659 53.8637C40.6667 53.19 40.0618 50.4813 41.619 49.2443ZM32.457 40.0114C33.3689 39.748 33.7675 40.6037 33.9521 41.3262C34.0303 41.7489 33.3686 42.1106 33.0884 41.7773C32.4751 41.4099 32.3547 40.663 32.457 40.0114ZM37.7816 51.2193C38.0441 51.0854 38.305 50.9488 38.5675 50.8149C38.9698 51.3691 39.2804 51.9851 39.4239 52.66C39.2278 52.7535 38.8385 52.9389 38.6425 53.0324C38.0992 52.5709 37.8465 51.9192 37.7816 51.2193ZM32.9203 46.266C33.1181 46.2159 33.5182 46.1169 33.7161 46.0668C33.939 46.5241 34.1592 46.983 34.3878 47.4371C33.6963 48.6953 32.6503 47.136 32.9203 46.266ZM29.2568 41.8415C29.7358 42.5013 29.7101 43.3251 29.5281 44.08C28.2623 44.1579 27.7769 41.5719 29.2568 41.8415ZM36.785 57.4078C36.1618 56.9755 35.2942 56.2346 35.7477 55.3889C35.9764 54.819 36.6482 55.1985 36.7819 55.6348C37.2248 56.1556 37.2245 56.8914 36.785 57.4078ZM39.5166 61.0418C39.7376 60.7792 39.9965 60.5586 40.3006 60.3795C40.6663 60.9614 41.6693 62.3558 40.4533 62.5504C39.9707 62.1921 39.5707 61.6552 39.5166 61.0418ZM44.7873 68.3163C43.7507 68.5413 42.9058 67.0114 44.0036 66.4755C44.5247 66.8901 45.4108 67.6244 44.7873 68.3163ZM44.2375 64.8304C43.3547 64.0351 43.2393 62.7753 43.3226 61.6609C44.0171 61.8874 43.9897 62.775 44.336 63.3084C44.5657 64.0725 45.3811 64.3172 45.9853 64.7082C45.4346 64.9161 44.8007 65.1405 44.2375 64.8304ZM46.1373 63.9994C45.3857 64.2518 45.0668 63.3262 44.821 62.8076C44.9894 62.7109 45.3219 62.5162 45.4874 62.421C45.7326 62.9252 46.263 63.3902 46.1373 63.9994ZM43.1838 58.8723C43.0583 58.8862 42.803 58.9126 42.6732 58.9251C40.9486 60.214 38.7672 57.1744 40.2565 55.8011C40.5957 56.4086 40.8638 57.048 41.1392 57.6871C41.3684 57.7675 41.6008 57.8536 41.8345 57.9353C41.8384 57.7483 41.8463 57.3743 41.8502 57.1872C42.1313 57.0135 42.4545 56.3803 42.8422 56.7207C43.4875 57.2332 43.6539 58.1839 43.1838 58.8723ZM49.3269 66.227C49.922 66.7154 50.3486 67.3338 50.2498 68.1389C49.1868 68.323 48.0135 66.7675 49.3269 66.227ZM54.2293 73.3833C53.677 74.3649 52.1858 72.7558 52.9319 72.0517C53.6477 71.5269 54.1972 72.7762 54.2293 73.3833ZM48.4055 60.9167C48.7549 61.7035 48.9359 62.7274 49.7984 63.131C50.2929 63.4642 50.9029 63.29 51.453 63.2819C51.4867 63.8919 50.7685 64.111 50.3045 64.2416C48.6999 64.429 47.3888 62.1954 48.4055 60.9167ZM54.7824 69.0629C53.6607 69.7563 52.759 67.548 54.05 67.3082C54.8083 67.5365 54.617 68.4555 54.7824 69.0629ZM53.5318 66.7515C52.3461 66.3786 51.9905 65.0518 52.0391 63.9417C52.23 63.8252 52.6084 63.5866 52.7976 63.4674C52.8781 63.7002 53.0363 64.1674 53.114 64.4017C53.3337 64.92 53.4726 65.5531 53.9977 65.8546C54.5373 66.1556 55.1837 65.9871 55.761 65.9345C55.6413 67.0099 54.3187 66.9713 53.5318 66.7515ZM54.2325 63.8765C54.9914 63.0617 55.6051 64.4272 55.7855 65.0485C55.3368 66.117 53.709 64.6758 54.2325 63.8765ZM58.971 73.2934C58.219 73.9601 57.794 72.8491 57.4237 72.366C57.9905 71.1028 59.2912 72.3402 58.971 73.2934ZM62.0727 76.7674C60.974 76.6459 60.7425 74.9548 61.9194 74.7226C62.2527 75.2927 62.9538 76.3547 62.0727 76.7674ZM58.3467 69.1907C58.0676 68.6719 57.2732 67.7021 58.3019 67.4963C59.0933 67.6507 59.3223 68.9957 58.3467 69.1907ZM52.2348 58.0366C52.5463 57.7907 52.8593 57.5475 53.1768 57.3057C53.7128 57.908 54.0388 58.6523 53.9594 59.4725C53.0111 59.5562 52.6127 58.7411 52.2348 58.0366ZM63.1361 72.7752C62.5121 73.1383 62.1205 72.2417 61.9793 71.7651C61.8272 71.2687 62.5268 71.1633 62.7978 70.9175C62.9963 71.4845 63.6753 72.2186 63.1361 72.7752ZM56.733 65.6195C56.5699 65.1032 56.4569 64.5705 56.3872 64.0359C57.27 62.9901 57.4843 64.7573 58.0039 65.2429C58.6888 66.0145 59.858 65.0656 60.4927 65.8131C59.4053 66.7094 57.6745 66.7484 56.733 65.6195ZM59.747 65.2194C59.3244 65.0165 58.9059 64.8077 58.4859 64.596C58.4239 64.0017 58.2951 63.0857 59.1459 63.0263C59.9828 63.3367 59.9997 64.492 59.747 65.2194ZM61.9141 67.3092C62.1304 67.212 62.5584 67.0163 62.7717 66.9206C63.0789 67.4904 63.3113 68.1052 63.1455 68.7624C62.4309 68.5729 62.0806 67.9788 61.9141 67.3092ZM67.8704 74.4861C66.8221 75.4865 65.5922 73.1859 66.9888 72.8361C67.4037 73.3131 67.6579 73.8937 67.8704 74.4861ZM58.8919 59.6543C58.0825 59.6281 57.224 59.1447 57.1716 58.2531C57.4138 58.0491 57.6789 57.8731 57.9685 57.7279C58.4106 58.3008 58.8538 58.9027 58.8919 59.6543ZM67.5646 71.3683C66.5364 71.4481 65.676 69.7495 66.9859 69.4771C67.3372 70.0262 68.2188 70.7187 67.5646 71.3683ZM62.3017 64.7106C62.9216 64.7084 63.5576 64.7823 64.169 64.6443C64.9848 64.3675 64.9202 63.4271 65.0951 62.7464L65.1752 62.4027C65.4707 62.7571 65.6495 63.1612 65.7056 63.6108C65.9618 65.34 63.1789 66.1116 62.3017 64.7106ZM62.6848 63.8779C62.6452 63.4783 62.6013 63.0774 62.5589 62.6793C62.7418 62.582 63.103 62.3862 63.2816 62.2876C63.5422 62.7796 63.9123 63.2555 63.9001 63.8426C63.6504 64.3946 63.0791 63.9559 62.6848 63.8779ZM62.0202 57.52C62.2264 57.2842 62.4705 57.0902 62.7569 56.9394C63.0562 57.4211 63.3328 57.9153 63.5924 58.4189C63.424 58.5489 63.0797 58.8093 62.9113 58.9393C62.4844 58.5613 62.0722 58.1161 62.0202 57.52ZM67.95 66.4565C67.2038 66.5914 66.6221 65.7924 66.7156 65.1049C66.8982 65.0003 67.263 64.7841 67.4456 64.6795C67.7447 65.2279 67.9243 65.8274 67.95 66.4565ZM66.824 60.3608C66.9739 60.2707 67.2751 60.0932 67.425 60.0031C67.888 60.52 68.0554 61.1781 67.9484 61.8546C67.8143 61.9397 67.5489 62.1085 67.4148 62.1937C66.9675 61.6717 66.6988 61.0511 66.824 60.3608ZM71.5641 68.6493C70.9561 68.3382 70.6104 67.786 70.5454 67.1194C70.7168 66.9878 71.0582 66.729 71.2295 66.5974C71.8364 67.1274 71.8249 67.9434 71.5641 68.6493ZM66.3196 56.214C65.4484 55.7746 65.4388 54.3381 66.4617 54.0615C66.8261 54.681 67.3023 55.9116 66.3196 56.214ZM71.0467 63.9367C70.5433 63.3533 70.0096 61.9585 71.1396 61.7485C71.9291 62.1406 71.9084 63.616 71.0467 63.9367ZM64.816 54.0203C64.7825 55.3253 65.8735 56.3569 66.3002 57.5446C66.2806 58.3392 66.2446 59.2648 65.585 59.8177C65.0195 60.1928 64.2239 60.928 63.6291 60.2324C64.0072 60.0199 64.3868 59.8103 64.7724 59.6047C64.9481 58.8385 65.2101 58.0542 65.1008 57.2606C64.8385 56.056 63.3712 55.4208 62.27 55.8034C60.9014 56.4113 62.325 58.5606 60.7795 58.8817C59.982 58.6493 60.3587 57.7315 60.1905 57.1256C59.9488 56.3533 59.3292 55.5125 58.4319 55.568C57.7849 55.5076 57.3988 56.1275 57.0519 56.5704C56.6458 57.194 56.1883 58.0123 56.5737 58.757C57.1142 59.9299 58.5846 59.9682 59.4804 60.7601C58.2131 61.826 56.5262 61.2418 55.2193 60.5956C54.3329 59.3254 54.9853 57.6415 54.2061 56.3712C53.0877 55.0959 51.0094 56.5876 51.122 58.0301C51.5598 58.9233 52.4657 59.4656 53.124 60.189L53.3657 60.4325C52.9869 60.59 52.5873 60.9844 52.1567 60.7269C50.9704 60.3061 50.1277 59.289 49.6456 58.1615C49.6193 57.237 49.8809 56.3383 49.8939 55.418C49.6494 55.0021 49.3543 54.6216 49.0745 54.229C48.9668 54.074 48.7513 53.7642 48.642 53.6064C49.1068 53.4237 49.595 53.2835 50.0138 53.0041C50.7507 51.8281 50.4362 50.0202 49.2354 49.2785C48.2747 48.9181 47.0009 49.47 46.7446 50.4988C46.5003 51.2881 46.9419 52.0609 47.1506 52.8071C46.9816 52.856 46.6423 52.951 46.4734 52.9999C45.3784 51.941 45.5295 50.3269 46.3316 49.1483C47.3976 48.2268 48.9024 48.4679 50.0815 47.8315C51.3173 46.6351 49.7189 43.6471 47.9855 44.6857C47.1856 45.0313 47.422 46.0284 47.3039 46.7184C47.4465 47.405 46.4736 47.665 46.1209 47.1536C44.452 45.5909 45.6861 42.6911 47.5628 41.8986C48.5698 41.5865 49.5329 42.2192 50.5277 42.2799C51.117 42.1688 51.5874 41.6281 52.2055 41.6897C53.2217 41.9566 54.4032 42.757 55.3826 41.9463C56.7484 41.0589 55.9795 38.8032 54.5332 38.4669C53.2016 37.9638 52.2788 39.4125 51.2736 40.0157C51.0801 37.9783 53.5455 36.2433 55.4254 37.0499C56.5058 37.3997 57.5331 38.5034 57.1551 39.7067C56.7633 40.8584 57.6802 41.8826 58.6626 42.3494C59.7168 42.0223 60.1197 41.0382 60.6421 40.1766L60.9786 40.1498C61.0558 40.3031 61.2132 40.6081 61.292 40.7642C61.5735 42.6864 63.9374 43.0372 64.6052 44.7351C65.256 45.9136 64.7607 47.2593 64.2357 48.3774C63.667 49.4494 63.9946 50.7657 64.6621 51.7132C65.3571 52.5901 66.8377 51.8168 66.9502 50.8489C66.8324 49.8122 66.2044 48.8023 66.5971 47.7461C66.812 47.7938 67.2446 47.8876 67.4595 47.9353C67.766 48.5572 68.1973 49.1509 68.3157 49.8471C68.248 50.7422 67.9353 51.5951 67.7451 52.4691C67.0153 53.4304 65.385 52.9888 64.816 54.0203ZM49.2266 52.3889C48.5546 53.1001 47.9593 51.9686 47.7646 51.4217C47.5197 50.8915 48.1136 50.6079 48.4381 50.3252C48.7254 50.9725 49.4423 51.6413 49.2266 52.3889ZM48.4471 45.5214C49.3865 45.8234 49.8232 46.7948 49.6529 47.7318C48.5324 47.711 47.744 46.4643 48.4471 45.5214ZM53.733 39.5151C54.2372 40.1536 55.1072 41.3072 53.8759 41.6951C53.2695 41.1058 52.5304 39.8614 53.733 39.5151ZM65.954 51.8168C64.8124 52.0591 64.2518 50.1135 65.3224 49.622C65.8119 50.2205 66.3722 51.0276 65.954 51.8168ZM69.5514 55.4386C69.7349 55.3224 70.1064 55.0913 70.2944 54.9765C70.7729 55.4479 70.8686 56.1233 70.9972 56.7511C70.0083 57.471 69.5991 56.2145 69.5514 55.4386ZM72.2573 60.5323C71.5802 60.0226 71.1746 58.4314 72.385 58.3804C73.0276 58.9349 72.9692 60.0541 72.2573 60.5323ZM70.1151 51.5189C69.948 51.6112 69.6105 51.7902 69.4418 51.8796C69.2149 51.3617 68.5467 50.8212 68.8478 50.215C69.0222 50.1224 69.3725 49.94 69.5485 49.8502C69.8162 50.3752 70.0245 50.933 70.1151 51.5189ZM72.668 53.4437C72.5041 53.5084 72.1734 53.6393 72.0051 53.7027C71.5662 53.2093 70.8286 51.8938 71.885 51.6912C72.5986 51.9256 72.5504 52.8358 72.668 53.4437ZM70.3792 45.7647C70.1253 46.1082 69.8714 46.4518 69.5874 46.7676C69.3439 46.0924 68.5501 45.3847 69.0605 44.6555C69.9335 44.2547 70.1459 45.1615 70.3792 45.7647ZM65.5416 36.3358C64.6514 36.2433 64.331 35.1411 63.9398 34.4661C65.0192 33.4818 66.1825 35.5013 65.5416 36.3358ZM67.363 38.576C67.5015 38.4921 67.7741 38.323 67.9098 38.2407C68.6912 38.6447 69.4531 40.0243 68.5045 40.6296C68.0424 39.9938 67.5996 39.3325 67.363 38.576ZM70.1466 43.4826C69.9245 43.0803 69.708 42.6749 69.4915 42.2695C69.4601 42.1056 69.3962 41.7823 69.3664 41.6213C69.7305 41.4905 70.0932 41.3641 70.4588 41.2362C70.8052 41.9839 71.1212 43.0515 70.1466 43.4826Z" stroke="#BF090D" stroke-width="0.424318"/>
<path d="M66.8239 60.3608C66.9737 60.2707 67.275 60.0932 67.4248 60.0031C67.8878 60.5201 68.0553 61.1781 67.9483 61.8546C67.8141 61.9397 67.5487 62.1085 67.4146 62.1937C66.9673 61.6717 66.6986 61.0511 66.8239 60.3608Z" fill="#FFC67E" stroke="#FFC67E" stroke-width="0.100881"/>
<path d="M40.4033 75.0188C40.5947 74.9168 40.9731 74.7115 41.1616 74.6111C41.5652 74.88 41.9731 75.1501 42.3823 75.4158C42.3622 75.56 42.3275 75.8453 42.3089 75.9924C41.5697 75.9459 41.0009 75.3912 40.4033 75.0188Z" fill="#883415" stroke="#883415" stroke-width="0.100881"/>
<path d="M44.9306 73.0879C45.0882 73.0452 45.4065 72.9656 45.5657 72.9257C45.8942 73.4135 46.5261 73.8815 46.372 74.5397C45.4977 75.0854 44.7026 73.8867 44.9306 73.0879Z" fill="#E2A36D" stroke="#E2A36D" stroke-width="0.100881"/>
<path d="M72.2572 60.5324C71.5801 60.0227 71.1745 58.4314 72.3849 58.3804C73.0276 58.935 72.9691 60.0542 72.2572 60.5324Z" fill="#FFBE7F" stroke="#FFBE7F" stroke-width="0.100881"/>
<path d="M65.0956 62.7464L65.1757 62.4028C65.4712 62.7571 65.65 63.1612 65.7061 63.6108C65.9623 65.34 63.1794 66.1117 62.3022 64.7106C62.922 64.7084 63.5581 64.7823 64.1695 64.6443C64.9853 64.3675 64.9207 63.4272 65.0956 62.7464Z" fill="#FB717B" stroke="#FB717B" stroke-width="0.100881"/>
<path d="M58.3469 69.1909C58.0678 68.6721 57.2734 67.7023 58.3021 67.4965C59.0936 67.6509 59.3225 68.9959 58.3469 69.1909Z" fill="#FFC18E" stroke="#FFC18E" stroke-width="0.100881"/>
<path d="M71.0471 63.9368C70.5437 63.3534 70.01 61.9586 71.14 61.7486C71.9295 62.1407 71.9089 63.6162 71.0471 63.9368Z" fill="#FFC07F" stroke="#FFC07F" stroke-width="0.100881"/>
<path d="M49.8113 73.7976C50.5248 73.0412 51.7078 74.8686 50.9154 75.3617C50.2313 75.2811 49.4069 74.4646 49.8113 73.7976Z" fill="#E1A16D" stroke="#E1A16D" stroke-width="0.100881"/>
<path d="M52.9322 72.0518C53.648 71.5271 54.1975 72.7764 54.2296 73.3835C53.6774 74.365 52.1861 72.756 52.9322 72.0518Z" fill="#FFC584" stroke="#FFC584" stroke-width="0.100881"/>
<path d="M45.4561 76.2546C46.0461 75.3816 47.2898 76.3214 47.3387 77.1263C46.6748 77.7184 45.393 77.1915 45.4561 76.2546Z" fill="#DB8B5E" stroke="#DB8B5E" stroke-width="0.100881"/>
<path d="M61.9144 67.3092C62.1306 67.212 62.5586 67.0163 62.7719 66.9206C63.0792 67.4904 63.3115 68.1052 63.1457 68.7624C62.4311 68.5729 62.0809 67.9789 61.9144 67.3092Z" fill="#FFC587" stroke="#FFC587" stroke-width="0.100881"/>
<path d="M66.7153 65.1049C66.8979 65.0004 67.2627 64.7841 67.4453 64.6795C67.7444 65.2279 67.924 65.8275 67.9497 66.4565C67.2035 66.5914 66.6218 65.7924 66.7153 65.1049Z" fill="#FFC285" stroke="#FFC285" stroke-width="0.100881"/>
<path d="M57.4233 72.366C57.9901 71.1028 59.2909 72.3402 58.9707 73.2934C58.2187 73.9601 57.7936 72.8491 57.4233 72.366Z" fill="#FFC887" stroke="#FFC887" stroke-width="0.100881"/>
<path d="M49.3661 77.3777C50.1898 76.7269 51.0655 77.4892 51.357 78.3116C50.8179 78.5539 50.2652 78.4969 49.7411 78.2576C49.6161 77.9643 49.4911 77.671 49.3661 77.3777Z" fill="#DEA36B" stroke="#DEA36B" stroke-width="0.100881"/>
<path d="M73.6457 66.0581C72.9178 65.2956 73.4695 64.3735 74.1818 63.8692C74.2954 64.9451 74.1731 66.0959 73.6329 67.0524C73.6425 66.7217 73.6477 66.3898 73.6457 66.0581Z" fill="#E6A182" stroke="#E6A182" stroke-width="0.100881"/>
<path d="M54.0595 75.9137C54.8874 75.1903 55.6588 76.1987 55.9814 76.9301C55.8534 77.0599 55.6004 77.3179 55.4724 77.4478C54.703 77.2663 54.2179 76.6691 54.0595 75.9137Z" fill="#E1A26F" stroke="#E1A26F" stroke-width="0.100881"/>
<path d="M61.9795 71.7651C61.8274 71.2687 62.527 71.1633 62.798 70.9175C62.9965 71.4845 63.6755 72.2186 63.1363 72.7752C62.5123 73.1382 62.1207 72.2417 61.9795 71.7651Z" fill="#FFC088" stroke="#FFC088" stroke-width="0.100881"/>
<path d="M48.3447 78.9551C49.3611 79.0148 50.2976 79.385 51.1159 79.983C50.6871 80.1237 50.2651 80.2902 49.8192 80.3664C49.101 80.2307 48.6941 79.5274 48.3447 78.9551Z" fill="#D4B07C" stroke="#D4B07C" stroke-width="0.100881"/>
<path d="M70.5454 67.1195C70.7167 66.9879 71.0581 66.7291 71.2294 66.5975C71.8364 67.1274 71.8249 67.9434 71.5641 68.6494C70.956 68.3383 70.6103 67.786 70.5454 67.1195Z" fill="#FFBD83" stroke="#FFBD83" stroke-width="0.100881"/>
<path d="M67.5651 71.3684C66.537 71.4481 65.6765 69.7495 66.9864 69.4771C67.3377 70.0262 68.2193 70.7187 67.5651 71.3684Z" fill="#FFBF8C" stroke="#FFBF8C" stroke-width="0.100881"/>
<path d="M57.9153 75.9615C58.4538 75.812 58.9799 75.9614 59.4394 76.2511C59.3198 76.6905 59.6775 77.6797 58.9282 77.6684C58.1167 77.5915 58.0794 76.5733 57.9153 75.9615Z" fill="#ECAB6E" stroke="#ECAB6E" stroke-width="0.100881"/>
<path d="M53.7489 78.9204C54.3956 78.1233 55.7312 78.9015 55.6319 79.766C54.9488 80.3836 53.9734 79.6616 53.7489 78.9204Z" fill="#E39D6D" stroke="#E39D6D" stroke-width="0.100881"/>
<path d="M72.3709 69.5347C72.6753 68.9747 73.0494 68.4538 73.385 67.9099C73.824 68.3366 74.1346 68.9193 73.9064 69.537C73.5385 70.1025 72.9425 70.476 72.4375 70.9139C72.494 70.4538 72.4417 69.991 72.3709 69.5347Z" fill="#ECCF9B" stroke="#ECCF9B" stroke-width="0.100881"/>
<path d="M62.0725 76.7677C60.9739 76.6461 60.7424 74.955 61.9192 74.7228C62.2525 75.2929 62.9537 76.355 62.0725 76.7677Z" fill="#FFC37A" stroke="#FFC37A" stroke-width="0.100881"/>
<path d="M67.8702 74.4861C66.8219 75.4865 65.592 73.1859 66.9886 72.8361C67.4036 73.3131 67.6577 73.8937 67.8702 74.4861Z" fill="#FFC67D" stroke="#FFC67D" stroke-width="0.100881"/>
<path d="M71.0486 72.4021C71.5582 71.4773 71.9159 70.4849 72.371 69.5348C72.4418 69.9911 72.4941 70.454 72.4376 70.914L72.2042 71.2278C71.8792 71.6032 71.6718 72.0579 71.4849 72.516C71.1963 73.1449 70.7922 73.7119 70.343 74.2373C69.1395 75.6931 67.7691 77.0008 66.2311 78.1053C66.0638 78.1237 65.7321 78.159 65.5648 78.1774C66.1664 77.6936 66.7361 77.172 67.3239 76.6699C68.3904 75.8295 69.6275 74.8764 69.6489 73.3821C69.9779 73.4222 70.3084 73.4652 70.6434 73.5094C70.5916 72.8466 70.4827 72.1674 69.9974 71.6702C70.3504 71.9077 70.6981 72.1557 71.0486 72.4021Z" fill="#883415" stroke="#883415" stroke-width="0.100881"/>
<path d="M69.6486 73.382C69.2168 72.8478 68.9495 71.6608 69.9972 71.67C70.4825 72.1673 70.5914 72.8465 70.6432 73.5093C70.3082 73.465 69.9776 73.4221 69.6486 73.382Z" fill="#FFC980" stroke="#FFC980" stroke-width="0.100881"/>
<path d="M58.2326 80.0233C57.731 79.731 58.1521 79.1546 58.2612 78.7764C58.8395 79.067 59.2843 79.5312 59.5236 80.1385C59.0838 80.2593 58.5431 80.5321 58.2326 80.0233Z" fill="#DF865F" stroke="#DF865F" stroke-width="0.100881"/>
<path d="M71.4855 72.516C71.6724 72.0579 71.8797 71.6032 72.2048 71.2278C72.8309 71.6251 72.1191 72.6726 71.4855 72.516Z" fill="#F6B8BD" stroke="#F6B8BD" stroke-width="0.100881"/>
<path d="M55.5801 81.085C56.6513 80.7152 57.7501 81.0178 58.8408 81.0514C58.2047 81.399 57.5907 81.7935 56.9148 82.0559C56.3632 81.9206 55.997 81.4315 55.5801 81.085Z" fill="#EEC993" stroke="#EEC993" stroke-width="0.100881"/>
<path d="M65.2407 76.2118C65.4625 75.8971 65.7172 75.6086 65.9691 75.3216C66.1755 75.8361 66.3764 76.3536 66.5687 76.8759C66.3652 76.9292 65.9553 77.0372 65.7518 77.0905C65.579 76.7977 65.4107 76.5062 65.2407 76.2118Z" fill="#FFBF84" stroke="#FFBF84" stroke-width="0.100881"/>
<path d="M62.5971 80.1007C62.0488 79.5163 61.415 78.5761 62.403 78.0489C62.908 78.6018 63.0162 79.3332 62.8324 80.0448L62.7918 80.326L62.5971 80.1007Z" fill="#DAA26A" stroke="#DAA26A" stroke-width="0.100881"/>
<path d="M66.2315 78.1052C67.7695 77.0007 69.1399 75.6931 70.3434 74.2372C70.3019 74.8517 70.1259 75.4701 69.6417 75.8854C68.5856 76.8717 67.4084 77.7325 66.1884 78.5024L66.2315 78.1052Z" fill="#EEB8B7" stroke="#EEB8B7" stroke-width="0.100881"/>
<path d="M63.2213 79.8188C63.9224 79.428 64.6006 78.9758 65.1032 78.3396C65.219 78.3015 65.4503 78.2182 65.5645 78.1773C65.7317 78.1588 66.0635 78.1235 66.2307 78.1051L66.1876 78.5023C65.7317 79.5378 64.2087 79.5582 63.2213 79.8188Z" fill="#E6C0A1" stroke="#E6C0A1" stroke-width="0.100881"/>
</svg>
