<svg width="83" height="23" viewBox="0 0 83 23" fill="none" xmlns="http://www.w3.org/2000/svg">
<g filter="url(#filter0_d_166_653)">
<path d="M7.848 21.192C5.72 21.192 4.016 20.792 2.736 19.992C1.456 19.176 0.816 17.936 0.816 16.272C0.816 15.392 0.968 14.72 1.272 14.256C1.576 13.792 2.024 13.56 2.616 13.56C3.048 13.56 3.4 13.672 3.672 13.896C3.944 14.12 4.08 14.408 4.08 14.76C4.08 15.08 4.056 15.36 4.008 15.6C4.008 15.664 3.992 15.776 3.96 15.936C3.944 16.096 3.936 16.264 3.936 16.44C3.936 17.16 4.296 17.696 5.016 18.048C5.752 18.4 6.776 18.576 8.088 18.576C9.448 18.576 10.512 18.336 11.28 17.856C12.048 17.36 12.432 16.672 12.432 15.792C12.432 15.248 12.256 14.784 11.904 14.4C11.552 14 11.112 13.672 10.584 13.416C10.056 13.144 9.312 12.816 8.352 12.432C7.12 11.952 6.112 11.496 5.328 11.064C4.56 10.632 3.896 10.048 3.336 9.312C2.792 8.56 2.52 7.632 2.52 6.528C2.52 5.376 2.824 4.352 3.432 3.456C4.056 2.56 4.944 1.864 6.096 1.368C7.264 0.871999 8.632 0.623999 10.2 0.623999C11.368 0.623999 12.44 0.799999 13.416 1.152C14.392 1.488 15.168 2.008 15.744 2.712C16.336 3.416 16.632 4.28 16.632 5.304C16.632 6.312 16.48 7.072 16.176 7.584C15.872 8.096 15.424 8.352 14.832 8.352C14.416 8.352 14.064 8.224 13.776 7.968C13.504 7.712 13.368 7.408 13.368 7.056C13.368 6.752 13.392 6.472 13.44 6.216C13.488 5.736 13.512 5.432 13.512 5.304C13.512 4.632 13.184 4.12 12.528 3.768C11.872 3.416 11.056 3.24 10.08 3.24C8.704 3.24 7.648 3.496 6.912 4.008C6.192 4.504 5.832 5.208 5.832 6.12C5.832 6.728 6.016 7.248 6.384 7.68C6.768 8.112 7.24 8.472 7.8 8.76C8.36 9.048 9.144 9.392 10.152 9.792C11.368 10.288 12.344 10.736 13.08 11.136C13.816 11.536 14.44 12.08 14.952 12.768C15.48 13.456 15.744 14.304 15.744 15.312C15.744 17.2 15.024 18.656 13.584 19.68C12.16 20.688 10.248 21.192 7.848 21.192ZM20.1234 21.12C19.4034 21.12 18.8114 20.792 18.3474 20.136C17.8994 19.464 17.6754 18.632 17.6754 17.64C17.6754 16.44 17.7554 15.344 17.9154 14.352C18.0754 13.344 18.3394 12.28 18.7074 11.16C18.8674 10.68 19.0914 10.336 19.3794 10.128C19.6674 9.92 20.1234 9.816 20.7474 9.816C21.0994 9.816 21.3394 9.872 21.4674 9.984C21.6114 10.096 21.6834 10.264 21.6834 10.488C21.6834 10.616 21.5954 11.048 21.4194 11.784C21.2594 12.376 21.1314 12.912 21.0354 13.392C20.7154 15.072 20.5554 16.192 20.5554 16.752C20.5554 17.088 20.5954 17.328 20.6754 17.472C20.7554 17.6 20.8834 17.664 21.0594 17.664C21.2994 17.664 21.5954 17.424 21.9474 16.944C22.3154 16.464 22.6994 15.736 23.0994 14.76C23.5154 13.784 23.9154 12.584 24.2994 11.16C24.4274 10.68 24.6194 10.336 24.8754 10.128C25.1474 9.92 25.5474 9.816 26.0754 9.816C26.4434 9.816 26.6994 9.864 26.8434 9.96C26.9874 10.04 27.0594 10.2 27.0594 10.44C27.0594 10.84 26.8594 11.936 26.4594 13.728C26.0114 15.776 25.7874 17.04 25.7874 17.52C25.7874 17.824 25.8514 18.064 25.9794 18.24C26.1074 18.4 26.2754 18.48 26.4834 18.48C26.8034 18.48 27.1794 18.288 27.6114 17.904C28.0594 17.504 28.6514 16.864 29.3874 15.984C29.5794 15.76 29.7954 15.648 30.0354 15.648C30.2434 15.648 30.4034 15.744 30.5154 15.936C30.6434 16.128 30.7074 16.392 30.7074 16.728C30.7074 17.368 30.5554 17.864 30.2514 18.216C29.5634 19.064 28.8194 19.76 28.0194 20.304C27.2354 20.848 26.3394 21.12 25.3314 21.12C24.5634 21.12 23.9954 20.824 23.6274 20.232C23.2754 19.64 23.0994 18.808 23.0994 17.736C22.8274 18.824 22.4194 19.664 21.8754 20.256C21.3314 20.832 20.7474 21.12 20.1234 21.12ZM46.8998 13.704C46.9478 13.688 47.0278 13.68 47.1398 13.68C47.3798 13.68 47.5638 13.76 47.6918 13.92C47.8198 14.08 47.8838 14.296 47.8838 14.568C47.8838 15.064 47.7878 15.456 47.5958 15.744C47.4038 16.016 47.1158 16.216 46.7318 16.344C45.9958 16.584 45.2118 16.704 44.3798 16.704C43.6758 16.704 43.0118 16.608 42.3878 16.416C41.9238 17.168 41.4118 17.944 40.8518 18.744C40.2118 19.656 39.6598 20.28 39.1958 20.616C38.7478 20.952 38.2358 21.12 37.6598 21.12C37.0198 21.12 36.5318 20.872 36.1958 20.376C35.8758 19.88 35.6758 19.064 35.5958 17.928L35.4758 16.176C34.9798 17.52 34.5318 18.544 34.1318 19.248C33.7478 19.952 33.3558 20.44 32.9558 20.712C32.5718 20.984 32.1158 21.12 31.5878 21.12C30.9318 21.12 30.4118 20.864 30.0278 20.352C29.6598 19.84 29.4278 19.032 29.3318 17.928C29.1398 15.688 29.0438 13.728 29.0438 12.048V11.208C29.0598 10.68 29.2038 10.312 29.4758 10.104C29.7478 9.896 30.1558 9.792 30.6998 9.792C31.1158 9.792 31.4198 9.888 31.6118 10.08C31.8198 10.256 31.9238 10.56 31.9238 10.992C31.9238 12.832 32.0358 15.224 32.2598 18.168C33.3478 15.88 34.3478 13.496 35.2598 11.016C35.4358 10.536 35.6438 10.216 35.8838 10.056C36.1398 9.88 36.4438 9.792 36.7958 9.792C37.2278 9.792 37.5238 9.88 37.6838 10.056C37.8598 10.232 37.9478 10.544 37.9478 10.992C37.9478 12.832 38.0598 15.224 38.2838 18.168C39.2438 16.744 39.9638 15.608 40.4438 14.76C40.2038 14.296 40.0838 13.744 40.0838 13.104C40.0838 12.56 40.2038 12.032 40.4438 11.52C40.6838 11.008 41.0118 10.592 41.4278 10.272C41.8438 9.952 42.3158 9.792 42.8438 9.792C43.3078 9.792 43.6838 9.96 43.9718 10.296C44.2598 10.616 44.4038 11.088 44.4038 11.712C44.4038 12.432 44.2118 13.256 43.8278 14.184C44.4358 14.152 45.2438 14.032 46.2518 13.824L46.8998 13.704ZM56.5044 15.648C56.7124 15.648 56.8724 15.744 56.9844 15.936C57.1124 16.128 57.1764 16.392 57.1764 16.728C57.1764 17.368 57.0244 17.864 56.7204 18.216C56.1284 18.936 55.2884 19.6 54.2004 20.208C53.1284 20.816 51.9764 21.12 50.7444 21.12C49.0644 21.12 47.7604 20.664 46.8324 19.752C45.9044 18.84 45.4404 17.592 45.4404 16.008C45.4404 14.904 45.6724 13.88 46.1364 12.936C46.6004 11.976 47.2404 11.216 48.0564 10.656C48.8884 10.096 49.8244 9.816 50.8644 9.816C51.7924 9.816 52.5364 10.096 53.0964 10.656C53.6564 11.2 53.9364 11.944 53.9364 12.888C53.9364 13.992 53.5364 14.944 52.7364 15.744C51.9524 16.528 50.6164 17.152 48.7284 17.616C49.1284 18.352 49.8884 18.72 51.0084 18.72C51.7284 18.72 52.5444 18.472 53.4564 17.976C54.3844 17.464 55.1844 16.8 55.8564 15.984C56.0484 15.76 56.2644 15.648 56.5044 15.648ZM50.4564 12.168C49.8644 12.168 49.3604 12.512 48.9444 13.2C48.5444 13.888 48.3444 14.72 48.3444 15.696V15.744C49.2884 15.52 50.0324 15.184 50.5764 14.736C51.1204 14.288 51.3924 13.768 51.3924 13.176C51.3924 12.872 51.3044 12.632 51.1284 12.456C50.9684 12.264 50.7444 12.168 50.4564 12.168ZM65.9263 15.648C66.1343 15.648 66.2943 15.744 66.4063 15.936C66.5343 16.128 66.5983 16.392 66.5983 16.728C66.5983 17.368 66.4463 17.864 66.1423 18.216C65.5503 18.936 64.7103 19.6 63.6223 20.208C62.5503 20.816 61.3983 21.12 60.1663 21.12C58.4863 21.12 57.1823 20.664 56.2543 19.752C55.3263 18.84 54.8623 17.592 54.8623 16.008C54.8623 14.904 55.0943 13.88 55.5583 12.936C56.0223 11.976 56.6623 11.216 57.4783 10.656C58.3103 10.096 59.2463 9.816 60.2863 9.816C61.2143 9.816 61.9583 10.096 62.5183 10.656C63.0783 11.2 63.3583 11.944 63.3583 12.888C63.3583 13.992 62.9583 14.944 62.1583 15.744C61.3743 16.528 60.0383 17.152 58.1503 17.616C58.5503 18.352 59.3103 18.72 60.4303 18.72C61.1503 18.72 61.9663 18.472 62.8783 17.976C63.8063 17.464 64.6063 16.8 65.2783 15.984C65.4703 15.76 65.6863 15.648 65.9263 15.648ZM59.8783 12.168C59.2863 12.168 58.7823 12.512 58.3663 13.2C57.9663 13.888 57.7663 14.72 57.7663 15.696V15.744C58.7103 15.52 59.4543 15.184 59.9983 14.736C60.5423 14.288 60.8143 13.768 60.8143 13.176C60.8143 12.872 60.7263 12.632 60.5503 12.456C60.3903 12.264 60.1663 12.168 59.8783 12.168ZM75.3482 15.648C75.5562 15.648 75.7162 15.744 75.8282 15.936C75.9562 16.128 76.0202 16.392 76.0202 16.728C76.0202 17.368 75.8682 17.864 75.5642 18.216C74.8762 19.064 74.1242 19.76 73.3082 20.304C72.4922 20.848 71.5562 21.12 70.5002 21.12C67.2362 21.12 65.6042 18.824 65.6042 14.232C65.6042 13.528 65.6282 12.816 65.6762 12.096H64.7402C64.2602 12.096 63.9322 12.008 63.7562 11.832C63.5962 11.656 63.5162 11.376 63.5162 10.992C63.5162 10.096 63.8762 9.648 64.5962 9.648H65.9642C66.2362 7.888 66.6522 6.28 67.2122 4.824C67.7722 3.368 68.4442 2.208 69.2282 1.344C70.0282 0.479999 70.8842 0.0479994 71.7962 0.0479994C72.4682 0.0479994 72.9962 0.343999 73.3802 0.935999C73.7642 1.528 73.9562 2.272 73.9562 3.168C73.9562 5.648 72.9162 7.808 70.8362 9.648H73.5242C73.7802 9.648 73.9642 9.704 74.0762 9.816C74.1882 9.928 74.2442 10.136 74.2442 10.44C74.2442 11.544 73.3402 12.096 71.5322 12.096H68.6042C68.5722 12.896 68.5562 13.52 68.5562 13.968C68.5562 15.632 68.7482 16.8 69.1322 17.472C69.5322 18.144 70.1562 18.48 71.0042 18.48C71.6922 18.48 72.3002 18.272 72.8282 17.856C73.3562 17.44 73.9802 16.816 74.7002 15.984C74.8922 15.76 75.1082 15.648 75.3482 15.648ZM71.1482 2.352C70.9082 2.352 70.6362 2.656 70.3322 3.264C70.0442 3.856 69.7642 4.688 69.4922 5.76C69.2362 6.816 69.0202 7.992 68.8442 9.288C69.7882 8.472 70.4922 7.56 70.9562 6.552C71.4362 5.528 71.6762 4.6 71.6762 3.768C71.6762 2.824 71.5002 2.352 71.1482 2.352ZM78.5301 21.648C77.6981 21.648 77.0581 21.456 76.6101 21.072C76.1781 20.688 75.9621 20.256 75.9621 19.776C75.9621 19.36 76.1141 19 76.4181 18.696C76.7221 18.392 77.1701 18.24 77.7621 18.24C77.9701 18.24 78.2101 18.264 78.4821 18.312C78.7701 18.344 78.9861 18.368 79.1301 18.384C79.1141 17.968 79.0181 17.576 78.8421 17.208C78.6821 16.84 78.4741 16.488 78.2181 16.152C77.9621 15.8 77.7221 15.496 77.4981 15.24C77.0021 16.184 76.5061 16.968 76.0101 17.592C75.5301 18.216 75.0021 18.808 74.4261 19.368C74.1381 19.656 73.8341 19.8 73.5141 19.8C73.2581 19.8 73.0501 19.712 72.8901 19.536C72.7301 19.344 72.6501 19.112 72.6501 18.84C72.6501 18.52 72.7621 18.224 72.9861 17.952L73.2981 17.568C74.1781 16.48 74.8421 15.584 75.2901 14.88C75.5781 14.416 75.8661 13.864 76.1541 13.224C76.4581 12.584 76.8501 11.712 77.3301 10.608C77.6341 9.904 78.2661 9.552 79.2261 9.552C79.6741 9.552 79.9861 9.592 80.1621 9.672C80.3381 9.752 80.4261 9.88 80.4261 10.056C80.4261 10.152 80.3941 10.304 80.3301 10.512C80.2661 10.72 80.1781 10.928 80.0661 11.136C79.7781 11.712 79.6341 12.2 79.6341 12.6C79.6341 12.84 79.7141 13.104 79.8741 13.392C80.0501 13.68 80.3141 14.04 80.6661 14.472C81.1781 15.144 81.5621 15.72 81.8181 16.2C82.0901 16.664 82.2261 17.176 82.2261 17.736C82.2261 18.408 82.0661 19.048 81.7461 19.656C81.4421 20.248 81.0101 20.728 80.4501 21.096C79.8901 21.464 79.2501 21.648 78.5301 21.648Z" fill="#5E2C15"/>
</g>
<defs>
<filter id="filter0_d_166_653" x="0.815918" y="0.0480957" width="81.4102" height="22.5999" filterUnits="userSpaceOnUse" color-interpolation-filters="sRGB">
<feFlood flood-opacity="0" result="BackgroundImageFix"/>
<feColorMatrix in="SourceAlpha" type="matrix" values="0 0 0 0 0 0 0 0 0 0 0 0 0 0 0 0 0 0 127 0" result="hardAlpha"/>
<feOffset dy="1"/>
<feComposite in2="hardAlpha" operator="out"/>
<feColorMatrix type="matrix" values="0 0 0 0 0.847059 0 0 0 0 0.541176 0 0 0 0 0.321569 0 0 0 1 0"/>
<feBlend mode="normal" in2="BackgroundImageFix" result="effect1_dropShadow_166_653"/>
<feBlend mode="normal" in="SourceGraphic" in2="effect1_dropShadow_166_653" result="shape"/>
</filter>
</defs>
</svg>
