<svg width="435" height="120" viewBox="0 0 435 120" fill="none" xmlns="http://www.w3.org/2000/svg">
<g filter="url(#filter0_di_73_42)">
<path d="M37.856 113.024C26.5067 113.024 17.4187 110.891 10.592 106.624C3.76533 102.272 0.352 95.6587 0.352 86.784C0.352 82.0907 1.16267 78.5067 2.784 76.032C4.40533 73.5573 6.79467 72.32 9.952 72.32C12.256 72.32 14.1333 72.9173 15.584 74.112C17.0347 75.3067 17.76 76.8427 17.76 78.72C17.76 80.4267 17.632 81.92 17.376 83.2C17.376 83.5413 17.2907 84.1387 17.12 84.992C17.0347 85.8453 16.992 86.7413 16.992 87.68C16.992 91.52 18.912 94.3787 22.752 96.256C26.6773 98.1333 32.1387 99.072 39.136 99.072C46.3893 99.072 52.064 97.792 56.16 95.232C60.256 92.5867 62.304 88.9173 62.304 84.224C62.304 81.3227 61.3653 78.848 59.488 76.8C57.6107 74.6667 55.264 72.9173 52.448 71.552C49.632 70.1013 45.664 68.352 40.544 66.304C33.9733 63.744 28.5973 61.312 24.416 59.008C20.32 56.704 16.7787 53.5893 13.792 49.664C10.8907 45.6533 9.44 40.704 9.44 34.816C9.44 28.672 11.0613 23.2107 14.304 18.432C17.632 13.6533 22.368 9.94133 28.512 7.296C34.7413 4.65066 42.0373 3.328 50.4 3.328C56.6293 3.328 62.3467 4.26666 67.552 6.144C72.7573 7.93599 76.896 10.7093 79.968 14.464C83.1253 18.2187 84.704 22.8267 84.704 28.288C84.704 33.664 83.8933 37.7173 82.272 40.448C80.6507 43.1787 78.2613 44.544 75.104 44.544C72.8853 44.544 71.008 43.8613 69.472 42.496C68.0213 41.1307 67.296 39.5093 67.296 37.632C67.296 36.0107 67.424 34.5173 67.68 33.152C67.936 30.592 68.064 28.9707 68.064 28.288C68.064 24.704 66.3147 21.9733 62.816 20.096C59.3173 18.2187 54.9653 17.28 49.76 17.28C42.4213 17.28 36.7893 18.6453 32.864 21.376C29.024 24.0213 27.104 27.776 27.104 32.64C27.104 35.8827 28.0853 38.656 30.048 40.96C32.096 43.264 34.6133 45.184 37.6 46.72C40.5867 48.256 44.768 50.0907 50.144 52.224C56.6293 54.8693 61.8347 57.2587 65.76 59.392C69.6853 61.5253 73.0133 64.4267 75.744 68.096C78.56 71.7653 79.968 76.288 79.968 81.664C79.968 91.7333 76.128 99.4987 68.448 104.96C60.8533 110.336 50.656 113.024 37.856 113.024ZM103.325 112.64C99.485 112.64 96.3277 110.891 93.853 107.392C91.4637 103.808 90.269 99.3707 90.269 94.08C90.269 87.68 90.6957 81.8347 91.549 76.544C92.4023 71.168 93.8103 65.4933 95.773 59.52C96.6263 56.96 97.821 55.1253 99.357 54.016C100.893 52.9067 103.325 52.352 106.653 52.352C108.53 52.352 109.81 52.6507 110.493 53.248C111.261 53.8453 111.645 54.7413 111.645 55.936C111.645 56.6187 111.176 58.9227 110.237 62.848C109.384 66.0053 108.701 68.864 108.189 71.424C106.482 80.384 105.629 86.3573 105.629 89.344C105.629 91.136 105.842 92.416 106.269 93.184C106.696 93.8667 107.378 94.208 108.317 94.208C109.597 94.208 111.176 92.928 113.053 90.368C115.016 87.808 117.064 83.9253 119.197 78.72C121.416 73.5147 123.549 67.1147 125.597 59.52C126.28 56.96 127.304 55.1253 128.669 54.016C130.12 52.9067 132.253 52.352 135.069 52.352C137.032 52.352 138.397 52.608 139.165 53.12C139.933 53.5467 140.317 54.4 140.317 55.68C140.317 57.8133 139.25 63.6587 137.117 73.216C134.728 84.1387 133.533 90.88 133.533 93.44C133.533 95.0613 133.874 96.3413 134.557 97.28C135.24 98.1333 136.136 98.56 137.245 98.56C138.952 98.56 140.957 97.536 143.261 95.488C145.65 93.3547 148.808 89.9413 152.733 85.248C153.757 84.0533 154.909 83.456 156.189 83.456C157.298 83.456 158.152 83.968 158.749 84.992C159.432 86.016 159.773 87.424 159.773 89.216C159.773 92.6293 158.962 95.2747 157.341 97.152C153.672 101.675 149.704 105.387 145.437 108.288C141.256 111.189 136.477 112.64 131.101 112.64C127.005 112.64 123.976 111.061 122.013 107.904C120.136 104.747 119.197 100.309 119.197 94.592C117.746 100.395 115.57 104.875 112.669 108.032C109.768 111.104 106.653 112.64 103.325 112.64ZM246.132 73.088C246.388 73.0027 246.815 72.96 247.412 72.96C248.692 72.96 249.673 73.3867 250.356 74.24C251.039 75.0933 251.38 76.2453 251.38 77.696C251.38 80.3413 250.868 82.432 249.844 83.968C248.82 85.4187 247.284 86.4853 245.236 87.168C241.311 88.448 237.129 89.088 232.692 89.088C228.937 89.088 225.396 88.576 222.068 87.552C219.593 91.5627 216.863 95.7013 213.876 99.968C210.463 104.832 207.519 108.16 205.044 109.952C202.655 111.744 199.924 112.64 196.852 112.64C193.439 112.64 190.836 111.317 189.044 108.672C187.337 106.027 186.271 101.675 185.844 95.616L185.204 86.272C182.559 93.44 180.169 98.9013 178.036 102.656C175.988 106.411 173.897 109.013 171.764 110.464C169.716 111.915 167.284 112.64 164.468 112.64C160.969 112.64 158.196 111.275 156.148 108.544C154.185 105.813 152.948 101.504 152.436 95.616C151.412 83.6693 150.9 73.216 150.9 64.256V59.776C150.985 56.96 151.753 54.9973 153.204 53.888C154.655 52.7787 156.831 52.224 159.732 52.224C161.951 52.224 163.572 52.736 164.596 53.76C165.705 54.6987 166.26 56.32 166.26 58.624C166.26 68.4373 166.857 81.1947 168.052 96.896C173.855 84.6933 179.188 71.9787 184.052 58.752C184.991 56.192 186.1 54.4853 187.38 53.632C188.745 52.6933 190.367 52.224 192.244 52.224C194.548 52.224 196.127 52.6933 196.98 53.632C197.919 54.5707 198.388 56.2347 198.388 58.624C198.388 68.4373 198.985 81.1947 200.18 96.896C205.3 89.3013 209.14 83.2427 211.7 78.72C210.42 76.2453 209.78 73.3013 209.78 69.888C209.78 66.9867 210.42 64.1707 211.7 61.44C212.98 58.7093 214.729 56.4907 216.948 54.784C219.167 53.0773 221.684 52.224 224.5 52.224C226.975 52.224 228.98 53.12 230.516 54.912C232.052 56.6187 232.82 59.136 232.82 62.464C232.82 66.304 231.796 70.6987 229.748 75.648C232.991 75.4773 237.3 74.8373 242.676 73.728L246.132 73.088ZM297.357 83.456C298.466 83.456 299.32 83.968 299.917 84.992C300.6 86.016 300.941 87.424 300.941 89.216C300.941 92.6293 300.13 95.2747 298.509 97.152C295.352 100.992 290.872 104.533 285.069 107.776C279.352 111.019 273.208 112.64 266.637 112.64C257.677 112.64 250.722 110.208 245.773 105.344C240.824 100.48 238.349 93.824 238.349 85.376C238.349 79.488 239.586 74.0267 242.061 68.992C244.536 63.872 247.949 59.8187 252.301 56.832C256.738 53.8453 261.73 52.352 267.277 52.352C272.226 52.352 276.194 53.8453 279.181 56.832C282.168 59.7333 283.661 63.7013 283.661 68.736C283.661 74.624 281.528 79.7013 277.261 83.968C273.08 88.1493 265.954 91.4773 255.885 93.952C258.018 97.8773 262.072 99.84 268.045 99.84C271.885 99.84 276.237 98.5173 281.101 95.872C286.05 93.1413 290.317 89.6 293.901 85.248C294.925 84.0533 296.077 83.456 297.357 83.456ZM265.101 64.896C261.944 64.896 259.256 66.7307 257.037 70.4C254.904 74.0693 253.837 78.5067 253.837 83.712V83.968C258.872 82.7733 262.84 80.9813 265.741 78.592C268.642 76.2027 270.093 73.4293 270.093 70.272C270.093 68.6507 269.624 67.3707 268.685 66.432C267.832 65.408 266.637 64.896 265.101 64.896ZM347.607 83.456C348.716 83.456 349.57 83.968 350.167 84.992C350.85 86.016 351.191 87.424 351.191 89.216C351.191 92.6293 350.38 95.2747 348.759 97.152C345.602 100.992 341.122 104.533 335.319 107.776C329.602 111.019 323.458 112.64 316.887 112.64C307.927 112.64 300.972 110.208 296.023 105.344C291.074 100.48 288.599 93.824 288.599 85.376C288.599 79.488 289.836 74.0267 292.311 68.992C294.786 63.872 298.199 59.8187 302.551 56.832C306.988 53.8453 311.98 52.352 317.527 52.352C322.476 52.352 326.444 53.8453 329.431 56.832C332.418 59.7333 333.911 63.7013 333.911 68.736C333.911 74.624 331.778 79.7013 327.511 83.968C323.33 88.1493 316.204 91.4773 306.135 93.952C308.268 97.8773 312.322 99.84 318.295 99.84C322.135 99.84 326.487 98.5173 331.351 95.872C336.3 93.1413 340.567 89.6 344.151 85.248C345.175 84.0533 346.327 83.456 347.607 83.456ZM315.351 64.896C312.194 64.896 309.506 66.7307 307.287 70.4C305.154 74.0693 304.087 78.5067 304.087 83.712V83.968C309.122 82.7733 313.09 80.9813 315.991 78.592C318.892 76.2027 320.343 73.4293 320.343 70.272C320.343 68.6507 319.874 67.3707 318.935 66.432C318.082 65.408 316.887 64.896 315.351 64.896ZM397.857 83.456C398.966 83.456 399.82 83.968 400.417 84.992C401.1 86.016 401.441 87.424 401.441 89.216C401.441 92.6293 400.63 95.2747 399.009 97.152C395.34 101.675 391.329 105.387 386.977 108.288C382.625 111.189 377.633 112.64 372.001 112.64C354.593 112.64 345.889 100.395 345.889 75.904C345.889 72.1493 346.017 68.352 346.273 64.512H341.281C338.721 64.512 336.972 64.0427 336.033 63.104C335.18 62.1653 334.753 60.672 334.753 58.624C334.753 53.8453 336.673 51.456 340.513 51.456H347.809C349.26 42.0693 351.478 33.4933 354.465 25.728C357.452 17.9627 361.036 11.776 365.217 7.16799C369.484 2.56 374.049 0.255997 378.913 0.255997C382.497 0.255997 385.313 1.83466 387.361 4.992C389.409 8.14933 390.433 12.1173 390.433 16.896C390.433 30.1227 384.886 41.6427 373.793 51.456H388.129C389.494 51.456 390.476 51.7547 391.073 52.352C391.67 52.9493 391.969 54.0587 391.969 55.68C391.969 61.568 387.148 64.512 377.505 64.512H361.889C361.718 68.7787 361.633 72.1067 361.633 74.496C361.633 83.3707 362.657 89.6 364.705 93.184C366.838 96.768 370.166 98.56 374.689 98.56C378.358 98.56 381.601 97.4507 384.417 95.232C387.233 93.0133 390.561 89.6853 394.401 85.248C395.425 84.0533 396.577 83.456 397.857 83.456ZM375.457 12.544C374.177 12.544 372.726 14.1653 371.105 17.408C369.569 20.5653 368.076 25.0027 366.625 30.72C365.26 36.352 364.108 42.624 363.169 49.536C368.204 45.184 371.958 40.32 374.433 34.944C376.993 29.4827 378.273 24.5333 378.273 20.096C378.273 15.0613 377.334 12.544 375.457 12.544ZM414.827 115.456C410.39 115.456 406.976 114.432 404.587 112.384C402.283 110.336 401.131 108.032 401.131 105.472C401.131 103.253 401.942 101.333 403.563 99.712C405.184 98.0907 407.574 97.28 410.731 97.28C411.84 97.28 413.12 97.408 414.571 97.664C416.107 97.8347 417.259 97.9627 418.027 98.048C417.942 95.8293 417.43 93.7387 416.491 91.776C415.638 89.8133 414.528 87.936 413.163 86.144C411.798 84.2667 410.518 82.6453 409.323 81.28C406.678 86.3147 404.032 90.496 401.387 93.824C398.827 97.152 396.011 100.309 392.939 103.296C391.403 104.832 389.782 105.6 388.075 105.6C386.71 105.6 385.6 105.131 384.747 104.192C383.894 103.168 383.467 101.931 383.467 100.48C383.467 98.7733 384.064 97.1947 385.259 95.744L386.923 93.696C391.616 87.8933 395.158 83.1147 397.547 79.36C399.083 76.8853 400.619 73.9413 402.155 70.528C403.776 67.1147 405.867 62.464 408.427 56.576C410.048 52.8213 413.419 50.944 418.539 50.944C420.928 50.944 422.592 51.1573 423.531 51.584C424.47 52.0107 424.939 52.6933 424.939 53.632C424.939 54.144 424.768 54.9547 424.427 56.064C424.086 57.1733 423.616 58.2827 423.019 59.392C421.483 62.464 420.715 65.0667 420.715 67.2C420.715 68.48 421.142 69.888 421.995 71.424C422.934 72.96 424.342 74.88 426.219 77.184C428.95 80.768 430.998 83.84 432.363 86.4C433.814 88.8747 434.539 91.6053 434.539 94.592C434.539 98.176 433.686 101.589 431.979 104.832C430.358 107.989 428.054 110.549 425.067 112.512C422.08 114.475 418.667 115.456 414.827 115.456Z" fill="#F7E6D2"/>
</g>
<defs>
<filter id="filter0_di_73_42" x="0.352051" y="0.256104" width="434.187" height="119.2" filterUnits="userSpaceOnUse" color-interpolation-filters="sRGB">
<feFlood flood-opacity="0" result="BackgroundImageFix"/>
<feColorMatrix in="SourceAlpha" type="matrix" values="0 0 0 0 0 0 0 0 0 0 0 0 0 0 0 0 0 0 127 0" result="hardAlpha"/>
<feOffset dy="4"/>
<feComposite in2="hardAlpha" operator="out"/>
<feColorMatrix type="matrix" values="0 0 0 0 0.847059 0 0 0 0 0.541176 0 0 0 0 0.321569 0 0 0 1 0"/>
<feBlend mode="normal" in2="BackgroundImageFix" result="effect1_dropShadow_73_42"/>
<feBlend mode="normal" in="SourceGraphic" in2="effect1_dropShadow_73_42" result="shape"/>
<feColorMatrix in="SourceAlpha" type="matrix" values="0 0 0 0 0 0 0 0 0 0 0 0 0 0 0 0 0 0 127 0" result="hardAlpha"/>
<feOffset dy="-6"/>
<feComposite in2="hardAlpha" operator="arithmetic" k2="-1" k3="1"/>
<feColorMatrix type="matrix" values="0 0 0 0 0.976471 0 0 0 0 0.886275 0 0 0 0 0.686275 0 0 0 1 0"/>
<feBlend mode="normal" in2="shape" result="effect2_innerShadow_73_42"/>
</filter>
</defs>
</svg>
